<?xml version="1.0" encoding="utf-8"?>
<!-- Generator: Adobe Illustrator 27.5.0, SVG Export Plug-In . SVG Version: 6.00 Build 0)  -->
<svg version="1.1" id="_x3C_Layer_x3E_" xmlns="http://www.w3.org/2000/svg" xmlns:xlink="http://www.w3.org/1999/xlink" x="0px"
	 y="0px" viewBox="0 0 2760 1840" style="enable-background:new 0 0 2760 1840;" xml:space="preserve">
<rect style="fill:#FFFFFF;" width="2760" height="1840"/>
<g>
	<g>
		<path style="fill:#DAEBE8;" d="M2257.872,1737.434c-195.134,26.405-396.17,15.403-806.943-12.228
			c-230.658-15.515-694.43,10.191-925.922,12.228c-168.768,1.485-305.594-134.714-305.594-300.892V929.673V400.197
			c0-166.178,137.111-310.667,305.594-300.892c156.464,9.077,386.603,45.014,626.506,23.01
			c285.329-26.171,826.904-48.41,1106.359-23.01c168.061,15.275,305.594,134.714,305.594,300.892v1036.345
			C2563.466,1602.72,2425.075,1714.808,2257.872,1737.434z"/>
	</g>
	<g>
		<path style="fill:#B8D5DC;" d="M1923.422,1404.557l-1220.796-15.041c-2.919-13.664-10.206-277.457-16.813-540.12l71.659,0.956
			v183.924h42.796l-26.89-401.854l49.62-2.764l-4.674-31.798h41.8v-83.28l22.345-1.49v-62.558h9.871v61.9l26.309-1.747
			l-3.156,87.174h34.405v24.75l61.394-3.401l-4.427,280.344h54.55l4.289-433.857l168.72,103.695l8.431,294.851l43.565,7.027
			l1.726-106.592l115.875-24.698l-0.01,0.904l-1.578,149.116l37.955,6.123v138.153h41.662l-11.518-301.519l251.59-49.808
			l-4.437,204.882l28.745,7.387l2.189-449.191l153.061,55.79L1923.422,1404.557z"/>
	</g>
	<g style="opacity:0.5;">
		<path style="fill:#FFFFFF;" d="M1927.876,1425.965l-1225.189-15.337c-2.929-13.933-10.243-282.913-16.873-550.741
			c-6.749-272.636-12.796-544.068-12.796-544.068h1214.036l19.001,516.767L1927.876,1425.965z"/>
	</g>
	<g>
		<path style="fill:#68A1BF;" d="M1942.9,1434.758l-9.127-0.123l-1238.005-15.448l-1.437-6.797
			c-6.05-28.638-29.027-1054.812-29.997-1098.48l-0.203-8.871h1237.114L1942.9,1434.758z M710.675,1402.022l1214.193,15.141
			l-40.371-1094.775H681.906C689.835,676.851,705.319,1325.36,710.675,1402.022z"/>
	</g>
	<g>
		<path style="fill:#B8D5DC;" d="M2492.775,1466.936c0,61.98-467.308,112.225-1043.761,112.225s-1043.761-50.245-1043.761-112.225
			s163.814-92.576,1047.71-103.396C2395.969,1351.997,2492.775,1404.956,2492.775,1466.936z"/>
	</g>
	<g>
		<path style="fill:#FFFFFF;" d="M1592.172,633.325l-353.644,151.037h-0.01l-66.147,33.738c0,0-5.298-90.532-46.955-157.477
			c-17.167-27.596-12.055-55.9,4.865-77.455l0.01-0.01c24.12-30.729,72.216-47.763,113.925-29.548
			c70.961,30.986,314.301-24.44,344.459,8.098C1618.843,594.234,1592.172,633.325,1592.172,633.325z"/>
	</g>
	<g style="opacity:0.5;">
		<g>
			<path style="fill:#68A1BF;" d="M2221.189,563.843c-1.548-33.182-31.618-61.24-65.13-61.24c-47.477,0-63.049,36.054-64.921,69.22
				c-1.944,34.449,28.688,58.025,62.199,58.025C2186.848,629.848,2223.112,605.066,2221.189,563.843z"/>
		</g>
		<g>
			<path style="fill:#BFD7D3;" d="M2209.41,567.316c0-26.424-26.61-54.575-53.254-55.42c-39.417-1.251-55.403,38.39-55.403,64.814
				c0,26.424,27.517,42.177,54.175,42.177S2209.41,593.741,2209.41,567.316z"/>
		</g>
		<g>
			<path style="fill:#68A1BF;" d="M2161.865,566.423c-0.358-3.607-4.227-6.012-7.883-6.012c-3.657,0-7.581,4.368-7.581,7.993
				c0,3.625,3.924,6.586,7.581,6.586C2157.638,574.99,2162.527,573.112,2161.865,566.423z"/>
		</g>
		<g>
			<g>
				<path style="fill:#68A1BF;" d="M2153.982,569.73h-1.324c-0.727,0-1.314-0.583-1.314-1.303c0-0.72-1.656-3.162-0.93-3.162
					l0.736-1.533l1.579-35.693l-1.64,0.997c-0.416,0.593-1.234,0.736-1.828,0.333c-0.595-0.408-0.747-1.22-0.333-1.811l4.044-5.813
					c0.326-0.472,0.921-0.675,1.474-0.504c0.549,0.169,0.921,0.674,0.921,1.245l2.189,45.845
					C2157.557,569.048,2154.705,569.73,2153.982,569.73z"/>
			</g>
			<g>
				<path style="fill:#68A1BF;" d="M2158.522,529.224c-0.38,0-0.76-0.164-1.019-0.48l-4.99-3.542
					c-0.459-0.558,0.147-3.275,0.712-3.729c0.559-0.453,1.388-0.371,1.848,0.187l4.468,5.438c0.459,0.558,0.375,1.379-0.19,1.833
					C2159.107,529.128,2158.814,529.224,2158.522,529.224z"/>
			</g>
		</g>
		<g>
			<g>
				<path style="fill:#68A1BF;" d="M2130.171,573.949c-0.344,0-0.688-0.134-0.945-0.398l-3.903-4.008
					c-0.367-0.377-0.472-0.934-0.264-1.415c0.205-0.481,0.682-0.792,1.208-0.792h0.003l31.011-1.614
					c0.723,0.001,1.136,2.268,1.136,2.987v1.313c0,0.72-0.588,1.302-1.314,1.302c-0.727,0-2.362,0.647-2.362-0.073l1.048-1.242
					l-26.418-0.06l1.745,1.793c0.505,0.518,0.49,1.342-0.031,1.842C2130.828,573.828,2130.5,573.949,2130.171,573.949z"/>
			</g>
			<g>
				<path style="fill:#68A1BF;" d="M2126.267,569.941c-0.292,0-0.587-0.097-0.831-0.294c-0.562-0.455-0.644-1.276-0.187-1.833
					l3.649-4.43c0.465-0.558,1.291-0.637,1.85-0.184c0.562,0.455,0.644,1.276,0.187,1.833l-1.434,3.317
					C2129.24,568.664,2126.647,569.941,2126.267,569.941z"/>
			</g>
		</g>
	</g>
	<g>
		<g>
			<path style="fill:#EF8062;" d="M1406.363,421.06c0,4.387-32.89,7.943-73.466,7.943s-73.317,6.341-73.317,1.953
				c-0.002-31.37,32.742-60.813,73.317-60.813S1406.363,392.938,1406.363,421.06z"/>
		</g>
		<g>
			<path style="fill:#C0E0DB;" d="M1406.216,421.504c0.189,3.063-15.667,6.751-39.065,9.592c-1.348,0.16-2.726,0.321-4.127,0.481
				c-9.041,1.016-19.067,1.902-29.623,2.581c-8.966,0.581-17.56,0.955-25.518,1.146c-2.885,0.077-5.679,0.122-8.383,0.145
				c-23.535,0.191-39.724-1.428-39.921-4.491c-0.167-2.642,11.623-5.751,29.895-8.37c1.454-0.206,2.945-0.412,4.483-0.619
				c7.731-1.023,16.439-1.955,25.768-2.727c4.119-0.344,8.345-0.664,12.668-0.939c3.014-0.199,5.997-0.367,8.913-0.512
				c12.35-0.634,23.785-0.878,33.492-0.756c0.235,0,0.462,0.008,0.689,0.008C1393.949,417.296,1406.042,418.87,1406.216,421.504z"/>
		</g>
		<g>
			<path style="fill:#FFFFFF;" d="M1374.799,417.037c-2.143,4.078-4.854,7.805-8.027,11.074c-1.189,1.222-2.438,2.383-3.748,3.467
				c-8.186,6.812-18.696,10.906-30.153,10.906c-9.17,0-17.734-2.627-24.988-7.179c-3.249-2.031-6.24-4.46-8.898-7.202
				c-1.84-1.902-3.529-3.949-5.028-6.133c7.731-1.023,16.439-1.955,25.768-2.727c4.119-0.344,8.345-0.664,12.668-0.939
				c3.014-0.199,5.997-0.367,8.913-0.512C1353.657,417.159,1365.091,416.914,1374.799,417.037z"/>
		</g>
		<g>
			<path style="fill:#EF8062;" d="M1332.897,375.404L1332.897,375.404c-1.742,0-3.155-1.413-3.155-3.155V188.088
				c0-1.742,1.412-3.155,3.155-3.155l0,0c1.742,0,3.155,1.413,3.155,3.155v184.161
				C1336.052,373.991,1334.64,375.404,1332.897,375.404z"/>
		</g>
		<g>
			<ellipse style="fill:#EF8062;" cx="1332.897" cy="371.52" rx="9.146" ry="9.224"/>
		</g>
	</g>
	<g>
		<g>
			<path style="fill:#EF8062;" d="M1629.37,421.06c0,4.387-32.89,7.943-73.466,7.943s-73.317,6.341-73.317,1.953
				c-0.002-31.37,32.742-60.813,73.317-60.813S1629.37,392.938,1629.37,421.06z"/>
		</g>
		<g>
			<path style="fill:#C0E0DB;" d="M1629.223,421.504c0.189,3.063-15.667,6.751-39.065,9.592c-1.348,0.16-2.726,0.321-4.127,0.481
				c-9.041,1.016-19.067,1.902-29.623,2.581c-8.966,0.581-17.56,0.955-25.519,1.146c-2.885,0.077-5.679,0.122-8.382,0.145
				c-23.535,0.191-39.724-1.428-39.921-4.491c-0.167-2.642,11.623-5.751,29.895-8.37c1.454-0.206,2.946-0.412,4.483-0.619
				c7.731-1.023,16.439-1.955,25.768-2.727c4.119-0.344,8.345-0.664,12.668-0.939c3.014-0.199,5.997-0.367,8.912-0.512
				c12.35-0.634,23.785-0.878,33.492-0.756c0.235,0,0.462,0.008,0.689,0.008C1616.956,417.296,1629.049,418.87,1629.223,421.504z"/>
		</g>
		<g>
			<path style="fill:#FFFFFF;" d="M1597.806,417.037c-2.143,4.078-4.854,7.805-8.027,11.074c-1.189,1.222-2.438,2.383-3.748,3.467
				c-8.186,6.812-18.696,10.906-30.153,10.906c-9.17,0-17.734-2.627-24.988-7.179c-3.248-2.031-6.24-4.46-8.897-7.202
				c-1.84-1.902-3.529-3.949-5.028-6.133c7.731-1.023,16.439-1.955,25.768-2.727c4.119-0.344,8.345-0.664,12.668-0.939
				c3.014-0.199,5.997-0.367,8.912-0.512C1576.664,417.159,1588.098,416.914,1597.806,417.037z"/>
		</g>
		<g>
			<path style="fill:#EF8062;" d="M1555.904,375.404L1555.904,375.404c-1.742,0-3.155-1.413-3.155-3.155V188.088
				c0-1.742,1.412-3.155,3.155-3.155l0,0c1.742,0,3.155,1.413,3.155,3.155v184.161
				C1559.059,373.991,1557.646,375.404,1555.904,375.404z"/>
		</g>
		<g>
			<ellipse style="fill:#EF8062;" cx="1555.904" cy="371.52" rx="9.146" ry="9.224"/>
		</g>
	</g>
	<g>
		<g>
			<path style="fill:#EF8062;" d="M1172.656,421.06c0,4.387-32.89,7.943-73.466,7.943c-40.575,0-73.317,6.341-73.317,1.953
				c-0.002-31.37,32.742-60.813,73.317-60.813C1139.766,370.143,1172.656,392.938,1172.656,421.06z"/>
		</g>
		<g>
			<path style="fill:#C0E0DB;" d="M1172.509,421.504c0.189,3.063-15.667,6.751-39.065,9.592c-1.348,0.16-2.726,0.321-4.127,0.481
				c-9.041,1.016-19.067,1.902-29.623,2.581c-8.966,0.581-17.56,0.955-25.519,1.146c-2.885,0.077-5.679,0.122-8.382,0.145
				c-23.535,0.191-39.724-1.428-39.921-4.491c-0.167-2.642,11.623-5.751,29.895-8.37c1.454-0.206,2.946-0.412,4.483-0.619
				c7.731-1.023,16.439-1.955,25.768-2.727c4.119-0.344,8.345-0.664,12.668-0.939c3.014-0.199,5.997-0.367,8.913-0.512
				c12.35-0.634,23.784-0.878,33.492-0.756c0.235,0,0.462,0.008,0.689,0.008C1160.242,417.296,1172.335,418.87,1172.509,421.504z"/>
		</g>
		<g>
			<path style="fill:#FFFFFF;" d="M1141.092,417.037c-2.143,4.078-4.854,7.805-8.026,11.074c-1.189,1.222-2.438,2.383-3.748,3.467
				c-8.186,6.812-18.696,10.906-30.153,10.906c-9.17,0-17.734-2.627-24.988-7.179c-3.248-2.031-6.24-4.46-8.897-7.202
				c-1.84-1.902-3.529-3.949-5.028-6.133c7.731-1.023,16.439-1.955,25.768-2.727c4.119-0.344,8.345-0.664,12.668-0.939
				c3.014-0.199,5.997-0.367,8.913-0.512C1119.95,417.159,1131.384,416.914,1141.092,417.037z"/>
		</g>
		<g>
			<path style="fill:#EF8062;" d="M1099.19,375.404L1099.19,375.404c-1.742,0-3.155-1.413-3.155-3.155V188.088
				c0-1.742,1.412-3.155,3.155-3.155l0,0c1.742,0,3.155,1.413,3.155,3.155v184.161
				C1102.345,373.991,1100.932,375.404,1099.19,375.404z"/>
		</g>
		<g>
			<path style="fill:#EF8062;" d="M1090.044,371.52c0-5.094,4.095-9.224,9.146-9.224s9.146,4.13,9.146,9.224
				c0,5.094-4.095,9.224-9.146,9.224S1090.044,376.615,1090.044,371.52z"/>
		</g>
	</g>
	<g>
		<g>
			<path style="fill:#B0B271;" d="M650.823,1348.008c0,0,35.798-134.757,5.993-184.349c-29.805-49.592-129.699-56.91-166.436-20.753
				c-36.738,36.157-41.317,80.301,15.941,98.949c57.258,18.648,133.476-48.826,147.76-41.892
				c14.283,6.935-14.178,142.743-14.178,142.743L650.823,1348.008z"/>
		</g>
		<g>
			<g>
				<path style="fill:#C2C68E;" d="M483.578,1206.623l-0.894-1.156c0.276-0.21,28.009-21.16,63.159-36.777
					c20.669-9.183,39.83-14.757,56.949-16.567c21.474-2.273,39.788,1.406,54.428,10.927l-0.806,1.219
					c-14.349-9.333-32.337-12.933-53.467-10.697c-16.964,1.793-35.975,7.327-56.503,16.447
					C511.449,1185.567,483.852,1206.414,483.578,1206.623z"/>
			</g>
		</g>
		<g>
			<path style="fill:#73B3CE;" d="M691.06,1454.928h-75.776c-11.591,0-21.255-7.009-22.25-16.136l-10.93-100.277h139.157
				l-9.901,101.558C710.541,1448.456,701.697,1454.928,691.06,1454.928z"/>
		</g>
		<g>
			<path style="fill:#66A8BE;" d="M726.262,1317.15v19.938c0,12.337-33.088,22.335-73.911,22.335
				c-40.816,0-73.91-9.998-73.91-22.335v-19.938c0-6.263,19.059-11.631,46.079-13.848c8.591-0.714,17.987-1.108,27.831-1.108
				C693.174,1302.195,726.262,1308.885,726.262,1317.15z"/>
		</g>
		<g>
			<path style="fill:#080435;" d="M726.263,1317.153c0,1.201-0.696,2.365-2.016,3.485c-3.29,2.787-10.476,5.286-20.329,7.222
				c-3.842,0.762-8.099,1.443-12.682,2.016c-1.184,0.152-2.395,0.296-3.634,0.421c-0.714,0.09-1.446,0.161-2.178,0.233
				c-3.805,0.394-7.81,0.717-11.959,0.959c-0.289,0.027-0.578,0.045-0.877,0.054c-2.161,0.125-4.357,0.233-6.59,0.313
				c-1.519,0.063-3.055,0.108-4.61,0.152c-0.597,0.009-1.202,0.027-1.808,0.036c-2.377,0.045-4.791,0.072-7.231,0.072
				c-1.048,0-2.088-0.009-3.128-0.018c-0.624,0-1.256-0.009-1.871-0.018c-2.459-0.036-4.89-0.089-7.277-0.179
				c-3.986-0.125-7.873-0.332-11.615-0.591c-0.705-0.054-1.392-0.099-2.088-0.152h-0.009c-0.56-0.045-1.112-0.089-1.663-0.134
				c-0.633-0.054-1.257-0.107-1.88-0.161c-4.104-0.359-8.018-0.798-11.697-1.299c-19.715-2.679-32.677-7.24-32.677-12.41
				c0-3.172,4.881-6.111,13.206-8.53c4.727-1.371,10.567-2.58,17.256-3.557c0.362-0.063,0.732-0.116,1.103-0.161h0.009
				c0.66-0.099,1.329-0.188,2.007-0.278c3.923-0.52,8.099-0.968,12.492-1.326c0.235-0.018,0.461-0.036,0.696-0.054
				c4.348-0.349,8.904-0.618,13.613-0.789c2.847-0.116,5.758-0.188,8.723-0.224c1.582-0.027,3.191-0.036,4.8-0.036
				c2.531,0,5.026,0.027,7.484,0.081c0.615,0.009,1.22,0.018,1.826,0.036c4.348,0.108,8.578,0.296,12.655,0.556
				c1.103,0.063,2.206,0.143,3.29,0.224c3.48,0.251,6.834,0.555,10.052,0.914c4.61,0.502,8.931,1.111,12.881,1.801
				c0.669,0.116,1.329,0.233,1.971,0.358c0.443,0.081,0.886,0.161,1.32,0.251c6.544,1.281,11.923,2.813,15.764,4.516
				C723.876,1312.825,726.263,1314.931,726.263,1317.153z"/>
		</g>
		<g>
			<path style="fill:#C2C68E;" d="M664.737,1328.818c0,0,27.649-136.629,76.423-168.17c48.773-31.541,141.732,5.442,158.68,53.932
				c16.948,48.49,1.471,90.13-58.225,81.912c-59.696-8.219-98.203-102.047-114.108-102.047c-15.905,0-50.609,134.374-50.609,134.374
				H664.737z"/>
		</g>
		<g>
			<g>
				<path style="fill:#CCD39C;" d="M864.823,1288.385c-0.154-0.308-15.699-31.083-40.231-60.303
					c-14.387-17.136-29.002-30.39-43.439-39.394c-17.98-11.215-35.728-15.824-52.752-13.7l-0.183-1.445
					c17.371-2.168,35.45,2.516,53.729,13.919c14.571,9.089,29.304,22.449,43.792,39.709c24.637,29.35,40.246,60.258,40.401,60.567
					L864.823,1288.385z"/>
			</g>
		</g>
		<g>
			<path style="fill:#92BCB5;" d="M647.034,1389.488c0,0,0.737-139.349-40.611-179.998
				c-41.348-40.649-139.923-23.023-166.395,21.078c-26.472,44.101-19.791,87.982,40.35,91.874
				c60.141,3.893,116.959-80.302,132.536-77.12c15.578,3.182,22.21,141.733,22.21,141.733L647.034,1389.488z"/>
		</g>
		<g>
			<path style="fill:#A5D7CD;" d="M449.482,1293.961l-1.155-0.908c0.215-0.27,21.798-27.423,51.906-51.239
				c27.866-22.049,68.968-45.742,106.422-33.018l-0.467,1.374C535.494,1186.38,450.323,1292.882,449.482,1293.961z"/>
		</g>
		<g>
			<path style="fill:#CCD39C;" d="M732.251,1283.028c0,0-16.776-30.216-54.676-28.857c-37.9,1.359-74.506,114.341-60.432,146.048
				c21.552,48.553,94.878,54.253,124.922,0C757.102,1373.068,750.864,1308.099,732.251,1283.028z"/>
		</g>
		<g>
			<g>
				<path style="fill:#C2C68E;" d="M678.11,1407.167l-1.438-0.3c0.165-0.778,16.393-78.507,7.763-137.041l1.454-0.211
					C694.558,1328.408,678.276,1406.386,678.11,1407.167z"/>
			</g>
		</g>
	</g>
	<g>
		<polygon style="fill:#9FC4EB;" points="1705.58,766.182 1686.06,763.913 1684.994,732.629 1705.58,731.485 		"/>
	</g>
	<g>
		<g>
			<g>
				<g>
					<path style="fill:#77AFC8;" d="M2359.451,1154.491c0,0-0.94,1.616-2.992,4.292c-0.062,0.069-0.116,0.149-0.171,0.224
						c-0.008,0.006-0.008,0.006-0.016,0.011c-3.598,4.642-10.453,12.286-21.426,20.137c-3.746,2.682-8.821,4.774-14.781,6.327
						h-0.008l-0.124,0.034c-1.275,0.327-2.588,0.636-3.932,0.911c0,0,0,0-0.008,0c-19.188,4.011-45.533,3.152-66.221-1.209h-0.008
						l-3.559-0.802h-0.008c-1.772-0.424-3.489-0.871-5.152-1.347c-5.355-1.53-9.707-3.467-13.243-5.61
						c-0.451-0.275-0.886-0.55-1.313-0.831c-14.346-9.415-14.09-22.137-14.09-22.137H2359.451z"/>
				</g>
				<g>
					<path style="fill:#68A1BF;" d="M2364.168,1135.259v13.92c0,8.613-35.469,15.593-79.229,15.593
						c-43.753,0-79.23-6.98-79.23-15.593v-13.92c0-4.373,20.431-8.12,49.395-9.667c9.209-0.499,19.281-0.774,29.835-0.774
						C2328.699,1124.818,2364.168,1129.488,2364.168,1135.259z"/>
				</g>
				<g>
					<path style="fill:#366F90;" d="M2364.167,1135.256c0,0.842-0.745,1.659-2.163,2.436c-7.162,3.957-31.452,7.049-62.004,7.826
						c-0.6,0.016-1.199,0.024-1.799,0.041c-4.164,0.097-8.45,0.146-12.817,0.146h-0.445c-3.557,0-7.057-0.032-10.484-0.089
						c-1.831-0.032-3.646-0.073-5.445-0.122c-0.689-0.016-1.369-0.04-2.05-0.057c-1.645-0.057-3.265-0.113-4.869-0.17
						c-2.115-0.089-4.189-0.186-6.222-0.291c-0.195-0.008-0.381-0.024-0.567-0.032c-0.697-0.041-1.385-0.073-2.074-0.113
						c-27.976-1.61-47.518-5.284-47.518-9.574c0-3.609,13.951-6.798,35.146-8.659c3.727-0.332,7.673-0.623,11.813-0.866
						c0.802-0.049,1.621-0.097,2.439-0.138c0.041,0,0.073-0.008,0.114-0.008c0.251-0.016,0.51-0.024,0.761-0.041
						c0.697-0.041,1.402-0.073,2.115-0.105c3.889-0.186,7.924-0.332,12.08-0.437c2.925-0.081,5.906-0.129,8.937-0.154
						c1.92-0.024,3.865-0.032,5.825-0.032c7.924,0,15.572,0.154,22.783,0.437c0.608,0.024,1.215,0.049,1.815,0.081
						c7.414,0.316,14.349,0.769,20.62,1.352c0,0,0,0,0.008,0c2.293,0.21,4.497,0.437,6.603,0.68c0,0,0,0,0.008,0
						c7.665,0.866,14.041,1.934,18.708,3.132c0.008,0.008,0.024,0.008,0.032,0c1.896,0.494,3.508,1.004,4.813,1.538
						C2362.823,1133.047,2364.167,1134.132,2364.167,1135.256z"/>
				</g>
				<g>
					<g>
						<path style="fill:#ACC9C5;" d="M2289.713,941.824c-7.601,4.5-11.279,3.403-13.028,0.399
							c-1.749-3.005-0.906-6.779,6.695-11.279c13.846-8.198,23.704-6.72,23.704-6.72S2303.76,933.507,2289.713,941.824z"/>
					</g>
					<g>
						<path style="fill:#ACC9C5;" d="M2289.332,999.426c-5.748,6.739-9.581,6.901-12.199,4.629
							c-2.619-2.272-3.032-6.119,2.716-12.857c10.471-12.276,20.273-14.094,20.273-14.094S2299.955,986.972,2289.332,999.426z"/>
					</g>
					<g>
						<g>
							<g>
								<path style="fill:#ACC9C5;" d="M2288.596,1142.572l-3.875-2.931c0.782-7.123,1.555-16.733-7.115-54.854
									c-8.002-35.173-27.07-88.134-72.475-140.696l1.257-1.105c45.656,52.852,64.822,106.119,72.86,141.499
									C2287.963,1122.844,2288.618,1142.311,2288.596,1142.572z"/>
							</g>
						</g>
						<g>
							<g>
								<path style="fill:#ACC9C5;" d="M2251.096,1009.35l-1.405-0.907c32.671-51.452,12.984-113.924,12.781-114.549l1.585-0.523
									C2264.263,894.003,2284.202,957.214,2251.096,1009.35z"/>
							</g>
						</g>
						<g>
							<g>
								<path style="fill:#ACC9C5;" d="M2225.976,982.052c-16.944,0-29.749-8.556-29.895-8.656l0.932-1.395
									c0.163,0.11,16.573,11.049,36.603,7.749l0.269,1.66C2231.176,981.858,2228.528,982.052,2225.976,982.052z"/>
							</g>
						</g>
						<g>
							<g>
								<path style="fill:#ACC9C5;" d="M2283.005,1111.431c-34.265-3.93-62.032-20.78-82.532-50.081
									c-0.711-1.014-1.382-1.973-1.581-2.145c0.002,0.002,0.061,0.052,0.171,0.089l0.527-1.595
									c0.467,0.156,0.761,0.561,2.245,2.682c20.215,28.891,47.587,45.505,81.358,49.378L2283.005,1111.431z"/>
							</g>
						</g>
						<g>
							<g>
								<path style="fill:#ACC9C5;" d="M2234.556,1093.314l-1.611-0.439c5.919-22.041-8.653-54.451-8.8-54.776l1.515-0.703
									c0.038,0.083,3.793,8.377,6.747,19.329C2235.144,1066.873,2237.74,1081.458,2234.556,1093.314z"/>
							</g>
						</g>
						<g>
							<g>
								<path style="fill:#ACC9C5;" d="M2204.016,934.712c8.826,8.029,9.575,12.515,7.261,15.102
									c-2.314,2.587-6.815,2.296-15.64-5.733c-16.077-14.627-19.658-26.38-19.658-26.38S2187.704,919.872,2204.016,934.712z"/>
							</g>
						</g>
						<g>
							<g>
								<path style="fill:#ACC9C5;" d="M2200.555,967.958c10.815,4.972,12.871,9.021,11.438,12.191
									c-1.433,3.17-5.811,4.261-16.626-0.71c-19.702-9.057-26.629-19.175-26.629-19.175S2180.566,958.769,2200.555,967.958z"/>
							</g>
						</g>
						<g>
							<g>
								<path style="fill:#ACC9C5;" d="M2229.116,1032.625c4.037,7.902,2.749,11.546-0.322,13.142
									c-3.071,1.596-6.761,0.54-10.798-7.362c-7.354-14.394-5.349-24.241-5.349-24.241S2221.654,1018.021,2229.116,1032.625z"/>
							</g>
						</g>
						<g>
							<g>
								<path style="fill:#ACC9C5;" d="M2243.038,955.253c2.01,8.655-0.119,11.873-3.482,12.668
									c-3.364,0.795-6.688-1.136-8.698-9.791c-3.662-15.766,0.658-24.825,0.658-24.825S2239.323,939.256,2243.038,955.253z"/>
							</g>
						</g>
						<g>
							<g>
								<path style="fill:#ACC9C5;" d="M2256.621,1084.402c-0.483,8.876-3.423,11.361-6.872,11.17
									c-3.449-0.191-6.102-2.986-5.619-11.862c0.88-16.169,7.551-23.638,7.551-23.638S2257.514,1067.998,2256.621,1084.402z"/>
							</g>
						</g>
						<g>
							<g>
								<path style="fill:#ACC9C5;" d="M2208.008,1059.846c5.621,6.847,5.136,10.685,2.476,12.907
									c-2.661,2.222-6.49,1.987-12.111-4.86c-10.24-12.472-10.371-22.524-10.371-22.524S2197.619,1047.192,2208.008,1059.846z"/>
							</g>
						</g>
						<g>
							<g>
								<path style="fill:#ACC9C5;" d="M2267.575,886.555c2.77,11.658,0.87,15.784-2.489,16.596
									c-3.359,0.812-6.906-1.997-9.677-13.655c-5.046-21.236-1.402-32.97-1.402-32.97S2262.456,865.01,2267.575,886.555z"/>
							</g>
						</g>
					</g>
				</g>
				<g>
					<path style="fill:#84B5AE;" d="M2285.383,1145.704h-0.445c-3.557,0-7.057-0.032-10.484-0.089
						c-1.831-0.032-3.646-0.073-5.445-0.122c-0.689-0.016-1.369-0.04-2.05-0.057c-1.645-0.057-3.265-0.113-4.869-0.17
						c-2.236-6.086-5.501-12.657-9.423-19.536c-5.274-9.242-11.74-19.034-18.521-28.907c0-0.008,0-0.016-0.016-0.016
						c-2.576-3.771-5.201-7.559-7.834-11.33l-0.008-0.008c-13.069-18.783-26.024-37.219-32.748-52.158
						c-7.057-15.667-7.251-27.467,6.465-31.739c32.343-10.067,64.622,77.504,79.108,123.276
						C2281.908,1133.695,2284.047,1140.986,2285.383,1145.704z"/>
				</g>
				<g>
					<g>
						<path style="fill:#ACC9C5;" d="M2280.636,1144.199l-6.182,1.416c-1.831-0.032-3.646-0.073-5.445-0.122
							c-0.689-0.016-1.369-0.04-2.05-0.057c-1.645-0.057-3.265-0.113-4.869-0.17c-2.115-0.089-4.189-0.186-6.222-0.291
							c-3.516-5.819-8.766-12.01-15.013-18.379c-35.244-36.012-102.15-78.005-68.195-94.045c6.465-3.059,13.546-2.444,20.879,0.761
							c28.292,12.374,60.465,63.366,76.637,91.69C2276.714,1136.454,2280.636,1144.199,2280.636,1144.199z"/>
					</g>
					<g>
						<g>
							<path style="fill:#C7DDDA;" d="M2269.009,1145.494c-0.689-0.016-1.369-0.04-2.05-0.057
								c-3.103-6.782-6.838-13.442-10.978-19.892c-6.554-10.213-14.122-19.9-21.835-28.721c0-0.008,0-0.016-0.016-0.016
								c-23.933-27.402-49.219-46.412-49.609-46.703l1.094-1.497c0.34,0.259,19.736,14.834,40.672,36.862l0.008,0.008
								c11.027,11.589,22.475,25.249,31.8,39.962C2262.228,1131.947,2265.939,1138.656,2269.009,1145.494z"/>
						</g>
					</g>
				</g>
				<g>
					<g>
						<path style="fill:#CCD39C;" d="M2418.183,1031.265c-0.373,0.931-0.762,1.861-1.175,2.792c0,0.008-0.008,0.008-0.008,0.016
							c-2.722,6.126-6.328,12.123-10.346,17.326c-4.48,5.827-5.412,12.163-5.08,18.548v0.008c0,0.178,0.016,0.348,0.024,0.534
							c0.592,9.493,3.816,19.067,2.05,27.143c-0.13,0.566-0.283,1.133-0.462,1.691c-1.418,4.443-4.618,8.376-10.978,11.516
							c-21.3,10.512-24.703,9.655-26.599,18.872v0.008c-0.121,0.55-0.227,1.133-0.332,1.748v0.008
							c-1.677,0.259-3.322,0.445-4.95,0.558c2.496,1.012,3.84,2.096,3.84,3.221c0,0.842-0.745,1.659-2.163,2.436
							c-7.162,3.957-31.452,7.049-62.004,7.826c-0.6,0.016-1.199,0.024-1.799,0.041c-4.31,0.097-8.742,0.146-13.263,0.146
							c-10.476,0-20.49-0.267-29.637-0.761c-0.697-0.041-1.385-0.073-2.074-0.113c-0.924-5.357-0.867-11.921,1.88-18.953
							c0.041-0.097,0.073-0.194,0.114-0.291c1.556-3.885,3.946-7.907,7.438-11.945c19.08-21.972,34.409-18.12,30.828-56.989
							c-0.041-0.437-0.089-0.874-0.13-1.335v-0.008c-0.041-0.356-0.073-0.729-0.114-1.101c-4.44-41.507,51.148-23.566,65.051-37.574
							c13.895-14.017,23.358-29.724,48.361-23.566C2424.252,997.414,2424.803,1014.497,2418.183,1031.265z"/>
					</g>
				</g>
				<g>
					<g>
						<g>
							<path style="fill:#C2C68E;" d="M2414.229,997.883c-20.927,18.524-38.306,36.377-52.695,52.983v0.008h-0.008
								c-0.47,0.542-0.924,1.076-1.385,1.61c-21.073,24.529-35.584,46.274-45.371,63.342c-0.283,0.502-0.559,0.979-0.843,1.465
								v0.008c-1.596,2.816-3.054,5.495-4.391,8.036c-4.407,8.376-7.486,15.206-9.536,20.183c-0.6,0.016-1.199,0.024-1.799,0.041
								c2.01-4.945,5.072-11.823,9.52-20.305c6.781-12.956,16.779-29.668,31.144-48.904c0.34-0.461,0.689-0.931,1.045-1.392
								c17.46-23.194,41.207-49.997,73.226-78.337L2414.229,997.883z"/>
						</g>
					</g>
					<g>
						<g>
							<path style="fill:#C2C68E;" d="M2326.016,1064.719c-22.795-0.827-32.857-8.264-33.274-8.58l1.001-1.346
								c0.098,0.074,10.121,7.439,32.334,8.244L2326.016,1064.719z"/>
						</g>
					</g>
					<g>
						<g>
							<path style="fill:#C2C68E;" d="M2339.817,1076.736c-9.04-3.41-16.459-13.059-21.454-27.902
								c-3.741-11.116-4.846-21.377-4.857-21.479l1.658-0.177c0.042,0.4,4.45,40.142,25.238,47.983L2339.817,1076.736z"/>
						</g>
					</g>
					<g>
						<g>
							<path style="fill:#C2C68E;" d="M2363.898,1052.594c-2.631,0-4.172-0.143-4.242-0.15l0.166-1.673
								c0.324,0.033,32.776,3.007,58.143-19.751l1.108,1.256C2398.632,1050.615,2373.7,1052.594,2363.898,1052.594z"/>
						</g>
					</g>
					<g>
						<g>
							<path style="fill:#C2C68E;" d="M2401.435,1071.636c-11.484-1.67-18.72-6.917-22.768-11.025
								c-4.406-4.472-6.065-8.516-6.134-8.686l1.546-0.634c0.063,0.156,6.569,15.624,27.595,18.68L2401.435,1071.636z"/>
						</g>
					</g>
					<g>
						<g>
							<path style="fill:#C2C68E;" d="M2365.958,1131.372c-0.227,0.04-0.454,0.073-0.68,0.105c-1.677,0.259-3.322,0.445-4.95,0.558
								c-1.418,0.097-2.812,0.146-4.181,0.146c-10.006,0-18.91-2.5-25.983-5.495c-0.008,0-0.008,0-0.008,0
								c-8.353-3.536-14.162-7.769-16.228-9.388v-0.008c-0.535-0.413-0.818-0.656-0.843-0.68l1.094-1.271
								c0.016,0.016,0.219,0.186,0.591,0.486c1.766,1.408,7.422,5.624,15.702,9.177c0.519,0.227,1.045,0.445,1.588,0.664
								c1.491,0.599,3.063,1.173,4.707,1.699c0,0,0,0,0.008,0c5.525,1.788,11.837,3.059,18.708,3.132
								c0.008,0.008,0.024,0.008,0.032,0c3.249,0.041,6.627-0.194,10.095-0.777c0.024,0,0.049,0,0.073-0.008L2365.958,1131.372z"/>
						</g>
					</g>
					<g>
						<g>
							<path style="fill:#C2C68E;" d="M2331.489,1126.529l-1.415-0.891c4.955-8.004,16.51-18.756,43.412-24.525
								c16.002-3.432,30.102-3.477,30.243-3.477v1.683C2403.175,1099.318,2348.126,1099.657,2331.489,1126.529z"/>
						</g>
					</g>
				</g>
			</g>
		</g>
		<g>
			<g>
				<g>
					<polygon style="fill:#5794BF;" points="2437.512,1200.642 2251.753,1200.642 2251.753,1412.418 2425.044,1412.418 					"/>
				</g>
				<g>
					<polygon style="fill:#73A0D1;" points="2351.186,1200.642 2151,1200.642 2159.788,1412.418 2351.186,1412.418 					"/>
				</g>
				<g>
					<polygon style="fill:#8FB3E3;" points="2442.595,1185.006 2144.144,1185.006 2138.986,1207.674 2442.595,1211.479 					"/>
				</g>
				<g>
					<path style="fill:#8FB3E3;" d="M2320.425,1380.835h-136.037c-4.146,0-7.599-3.208-7.939-7.375l-4.456-54.601
						c-0.382-4.682,3.282-8.694,7.939-8.694h140.493c4.399,0,7.966,3.597,7.966,8.034v54.601
						C2328.392,1377.238,2324.825,1380.835,2320.425,1380.835z"/>
				</g>
				<g>
					<path style="fill:#8FB3E3;" d="M2320.425,1294.255h-136.037c-4.146,0-7.599-3.208-7.939-7.375l-4.456-54.601
						c-0.382-4.681,3.282-8.694,7.939-8.694h140.493c4.399,0,7.966,3.597,7.966,8.035v54.601
						C2328.392,1290.658,2324.825,1294.255,2320.425,1294.255z"/>
				</g>
				<g>
					<polygon style="fill:#366F90;" points="2356.305,1185.006 2356.305,1210.397 2442.595,1211.479 2442.595,1185.006 					"/>
				</g>
				<g>
					<g>
						<path style="fill:#331832;" d="M2192.25,1412.415l-2.256,10.511c-0.721,5.514-4.873,5.549-6.769,5.514
							c-2.989-0.047-5.141-5.197-4.385-9.948l0.942-6.077H2192.25z"/>
					</g>
				</g>
				<g>
					<g>
						<path style="fill:#331832;" d="M2321.61,1412.415l2.256,10.511c0.721,5.514,4.874,5.549,6.77,5.514
							c2.989-0.047,5.141-5.197,4.385-9.948l-0.942-6.077H2321.61z"/>
					</g>
				</g>
				<g>
					<g>
						<path style="fill:#331832;" d="M2402.597,1412.415l2.256,10.511c0.721,5.514,4.873,5.549,6.769,5.514
							c2.989-0.047,5.141-5.197,4.385-9.948l-0.942-6.077H2402.597z"/>
					</g>
				</g>
				<g>
					<g>
						<g>
							<path style="fill:#331832;" d="M2249.26,1243.374c-2.307,0-4.508-0.953-5.744-2.488c-1.004-1.248-1.35-2.8-1-4.488l0,0
								c0.854-4.109,3.438-6.661,6.744-6.661c3.633,0,7.39,2.292,7.39,6.127C2256.65,1239.556,2253.886,1243.374,2249.26,1243.374z
								 M2244,1236.712c-0.257,1.24-0.024,2.32,0.693,3.21c0.955,1.186,2.705,1.923,4.566,1.923c3.676,0,5.873-3.041,5.873-5.98
								c0-2.877-2.987-4.598-5.873-4.598C2245.429,1231.266,2244.266,1235.434,2244,1236.712L2244,1236.712z"/>
						</g>
					</g>
					<g>
						<g>
							<path style="fill:#331832;" d="M2249.517,1251.49L2249.517,1251.49c-1.018,0-1.851-0.833-1.851-1.851v-7.223
								c0-1.018,0.833-1.851,1.851-1.851l0,0c1.018,0,1.851,0.833,1.851,1.851v7.223
								C2251.368,1250.658,2250.535,1251.49,2249.517,1251.49z"/>
						</g>
					</g>
				</g>
				<g>
					<g>
						<g>
							<path style="fill:#331832;" d="M2249.26,1332.112c-2.307,0-4.508-0.953-5.744-2.488c-1.004-1.247-1.35-2.799-1-4.487l0,0
								c0.854-4.11,3.437-6.662,6.744-6.662c3.633,0,7.39,2.292,7.39,6.127C2256.65,1328.293,2253.886,1332.112,2249.26,1332.112z
								 M2244,1325.45c-0.257,1.24-0.024,2.32,0.693,3.209c0.955,1.186,2.705,1.923,4.566,1.923c3.676,0,5.873-3.041,5.873-5.98
								c0-2.877-2.987-4.598-5.873-4.598C2245.429,1320.004,2244.266,1324.173,2244,1325.45L2244,1325.45z"/>
						</g>
					</g>
					<g>
						<g>
							<path style="fill:#331832;" d="M2249.517,1340.229L2249.517,1340.229c-1.018,0-1.851-0.833-1.851-1.851v-7.223
								c0-1.018,0.833-1.851,1.851-1.851l0,0c1.018,0,1.851,0.833,1.851,1.851v7.223
								C2251.368,1339.396,2250.535,1340.229,2249.517,1340.229z"/>
						</g>
					</g>
				</g>
			</g>
		</g>
	</g>
	<g>
		<path style="fill:#331832;" d="M1365.433,1468.684c-0.485,0-0.977-0.086-1.456-0.27c-2.125-0.798-3.194-3.178-2.389-5.301
			l137.826-363.407c0.577-1.521,1.996-2.552,3.624-2.638c1.622-0.221,3.145,0.773,3.888,2.233l185.143,363.408
			c1.032,2.024,0.227,4.503-1.8,5.534c-2.057,0.994-4.508,0.208-5.534-1.804l-180.924-355.125l-134.534,354.72
			C1368.657,1467.677,1367.091,1468.684,1365.433,1468.684z"/>
	</g>
	<g>
		<g>
			<path style="fill:#331832;" d="M1545.466,1472.475c-2.008,0-3.765-1.473-4.066-3.521l-53.484-367.199
				c-0.326-2.245,1.228-4.331,3.483-4.65c2.186-0.491,4.33,1.215,4.662,3.472l53.484,367.199c0.325,2.245-1.228,4.331-3.483,4.65
				C1545.865,1472.463,1545.663,1472.475,1545.466,1472.475z"/>
		</g>
		<g>
			<path style="fill:#331832;" d="M1208.021,1396.979c-0.387,0-0.786-0.061-1.173-0.172c-2.18-0.65-3.421-2.932-2.77-5.116
				l164.654-551.798c0.651-2.159,2.96-3.399,5.116-2.761c2.18,0.65,3.421,2.932,2.77,5.117l-164.654,551.798
				C1211.429,1395.825,1209.796,1396.979,1208.021,1396.979z"/>
		</g>
		<g>
			<polygon style="fill:#FFFFFF;" points="1700.657,1170.449 1316.506,1170.449 1208.018,633.327 1592.169,633.327 			"/>
		</g>
	</g>
	<g>
		<path style="fill:#92BCB5;" d="M1114.796,935.511c0,0,52.277-207.944,10.62-274.889c-17.167-27.596-12.055-55.9,4.865-77.455
			l0.01-0.01c47.327-44.661,84.253-10.16,88.612,18.452c3.6,23.63-10.882,31.716-10.882,31.716l60.547,299.859L1114.796,935.511z"/>
	</g>
	<g>
		<rect x="1208.021" y="632.815" style="fill:#68A1BF;" width="384.149" height="1.031"/>
	</g>
	<g>
		<g>
			<g>
				<g>
					<path style="fill:#FFFFFF;" d="M1112.356,1356.134l5.085-6.603c0.85-1.103,2.159-1.756,3.553-1.772l4.63-0.051
						c1.814-0.02,3.467,1.039,4.204,2.696l0.772,1.734c0.762,1.712,2.498,2.78,4.371,2.691l0,0c2.381-0.114,4.446,1.629,4.731,3.992
						l0.597,4.947c0.133,1.103-0.143,2.216-0.777,3.129l-3.745,5.398c-1.034,1.491-2.858,2.224-4.638,1.864l-9.572-1.934
						c-1.11-0.224-2.096-0.854-2.765-1.766l-6.509-8.871C1111.097,1359.957,1111.123,1357.735,1112.356,1356.134z"/>
				</g>
				<g>
					<path style="fill:#366F90;" d="M1128.894,1357.679c-0.074,0-0.147-0.012-0.221-0.012l-5.767-0.307l0.025-0.368l5.767,0.307
						c0.061,0,0.129,0,0.196,0c0.547,0,1.087-0.123,1.572-0.368l4.422-2.258l0.172,0.319l-4.422,2.258
						C1130.098,1357.531,1129.496,1357.679,1128.894,1357.679z"/>
				</g>
				<g>
					<path style="fill:#366F90;" d="M1126.498,1368.12h-1.149c-1.296,0-2.494-0.589-3.292-1.607l-1.05-1.35
						c-0.473-0.614-1.161-1.031-1.935-1.178l-6.037-1.153l0.074-0.368l6.037,1.153c0.86,0.172,1.628,0.638,2.156,1.325l1.05,1.35
						c0.725,0.932,1.818,1.46,2.997,1.46h1.149V1368.12z"/>
				</g>
				<g>
					<path style="fill:#366F90;" d="M1134.636,1365.691c-0.755,0-1.505-0.184-2.199-0.54l-4.379-2.282l0.172-0.319l4.379,2.282
						c1.425,0.712,3.157,0.626,4.508-0.27l0.571-0.393l0.209,0.294l-0.571,0.393
						C1136.516,1365.408,1135.576,1365.691,1134.636,1365.691z"/>
				</g>
			</g>
			<g>
				<g>
					<g>
						<path style="fill:#FFFFFF;" d="M1030.466,1367.954l5.36-14.612c0.896-2.442,2.863-4.338,5.338-5.145l8.221-2.681
							c3.222-1.051,6.761-0.087,9.004,2.452l2.349,2.659c2.318,2.624,6.01,3.557,9.298,2.35h0c4.179-1.535,8.835,0.416,10.669,4.469
							l3.837,8.481c0.855,1.891,0.987,4.03,0.37,6.012l-3.647,11.714c-1.007,3.236-3.846,5.562-7.22,5.917l-18.143,1.907
							c-2.104,0.221-4.214-0.35-5.918-1.601l-16.573-12.168C1030.366,1375.472,1029.166,1371.497,1030.466,1367.954z"/>
					</g>
					<g>
						<path style="fill:#366F90;" d="M1049.963,1364.243l-0.172-0.663l10.441-2.675c1.118-0.295,2.144-0.871,2.96-1.669l6.603-6.503
							l0.479,0.491l-6.602,6.503c-0.903,0.883-2.033,1.522-3.268,1.841L1049.963,1364.243z"/>
					</g>
					<g>
						<path style="fill:#366F90;" d="M1058.034,1382.402c-1.572,0-3.139-0.466-4.459-1.374l-2.617-1.816
							c-1.198-0.81-2.659-1.203-4.115-1.018l-11.418,1.313l-0.074-0.687l11.418-1.313c1.628-0.147,3.243,0.233,4.582,1.141
							l2.616,1.816c1.8,1.227,4.103,1.583,6.173,0.932l2.039-0.638l0.209,0.663l-2.039,0.638
							C1059.594,1382.292,1058.814,1382.402,1058.034,1382.402z"/>
					</g>
					<g>
						<path style="fill:#366F90;" d="M1072.873,1372.93c-0.516,0-1.038-0.049-1.56-0.135l-9.09-1.607l0.123-0.687l9.09,1.607
							c3.01,0.552,6.001-0.614,7.88-2.994l0.798-1.018l0.54,0.417l-0.798,1.018
							C1078.149,1371.703,1075.569,1372.93,1072.873,1372.93z"/>
					</g>
				</g>
				<g>
					<g>
						<path style="fill:#FFFFFF;" d="M1067.865,1339.812l4.744-12.93c0.793-2.161,2.534-3.839,4.724-4.553l7.275-2.372
							c2.851-0.93,5.983-0.077,7.967,2.17l2.078,2.353c2.051,2.322,5.319,3.148,8.228,2.079l0,0
							c3.698-1.358,7.818,0.368,9.441,3.954l3.395,7.505c0.757,1.673,0.874,3.566,0.328,5.32l-3.227,10.366
							c-0.891,2.863-3.404,4.922-6.389,5.236l-16.055,1.687c-1.861,0.196-3.729-0.31-5.237-1.417l-14.666-10.768
							C1067.777,1346.465,1066.715,1342.948,1067.865,1339.812z"/>
					</g>
					<g>
						<path style="fill:#366F90;" d="M1085.114,1336.525l-0.147-0.589l9.244-2.368c1.001-0.258,1.904-0.773,2.61-1.485l5.847-5.742
							l0.43,0.442l-5.847,5.742c-0.786,0.773-1.781,1.35-2.887,1.632L1085.114,1336.525z"/>
					</g>
					<g>
						<path style="fill:#366F90;" d="M1092.238,1352.599c-1.388,0-2.745-0.417-3.918-1.227l-2.322-1.595
							c-1.063-0.736-2.352-1.055-3.636-0.896l-10.104,1.153l-0.074-0.614l10.104-1.153c0.233-0.025,0.461-0.037,0.688-0.037
							c1.192,0,2.371,0.368,3.366,1.055l2.322,1.595c1.597,1.104,3.599,1.399,5.46,0.822l1.806-0.564l0.184,0.589l-1.806,0.564
							C1093.626,1352.501,1092.926,1352.599,1092.238,1352.599z"/>
					</g>
					<g>
						<path style="fill:#366F90;" d="M1105.401,1344.206c-0.461,0-0.921-0.037-1.388-0.123l-8.046-1.423l0.111-0.589l8.046,1.423
							c2.61,0.454,5.307-0.564,6.971-2.663l0.7-0.883l0.479,0.368l-0.7,0.883
							C1110.062,1343.127,1107.784,1344.206,1105.401,1344.206z"/>
					</g>
				</g>
				<g>
					<g>
						<path style="fill:#FFFFFF;" d="M1021.819,1323.092l2.624-13.519c0.439-2.259,1.89-4.192,3.939-5.245l6.805-3.498
							c2.667-1.371,5.895-1.026,8.211,0.877l2.427,1.993c2.394,1.967,5.752,2.263,8.454,0.746l0,0
							c3.435-1.928,7.777-0.879,9.95,2.404l4.547,6.87c1.014,1.532,1.43,3.382,1.17,5.2l-1.536,10.746
							c-0.424,2.969-2.577,5.4-5.474,6.184l-15.582,4.216c-1.807,0.489-3.731,0.287-5.396-0.567l-16.193-8.301
							C1022.791,1329.674,1021.183,1326.37,1021.819,1323.092z"/>
					</g>
					<g>
						<path style="fill:#366F90;" d="M1038.33,1317.115l-0.246-0.564l8.746-3.804c0.927-0.405,1.738-1.055,2.346-1.877l4.858-6.613
							l0.491,0.368l-4.858,6.614c-0.669,0.908-1.566,1.62-2.592,2.074L1038.33,1317.115z"/>
					</g>
					<g>
						<path style="fill:#366F90;" d="M1027.779,1332.489l-0.16-0.589l9.79-2.748c1.37-0.368,2.856-0.282,4.158,0.356l2.543,1.215
							c1.769,0.834,3.783,0.834,5.528-0.049l1.695-0.847l0.27,0.54l-1.695,0.847c-1.922,0.957-4.133,0.969-6.056,0.049l-2.543-1.215
							c-1.179-0.552-2.506-0.65-3.734-0.307L1027.779,1332.489z"/>
					</g>
					<g>
						<path style="fill:#366F90;" d="M1058.292,1321.581c-0.031,0-0.068,0-0.104,0l-8.169-0.135l0.012-0.614l8.169,0.135
							c0.031,0,0.062,0,0.098,0c2.641,0,5.067-1.423,6.363-3.73l0.553-0.994l0.528,0.294l-0.553,0.994
							C1063.795,1320.035,1061.16,1321.581,1058.292,1321.581z"/>
					</g>
				</g>
				<g>
					<g>
						<path style="fill:#FFFFFF;" d="M1119.079,1334.283l-10.204-9.261c-1.705-1.547-2.605-3.791-2.442-6.086l0.541-7.625
							c0.212-2.989,2.183-5.565,5.014-6.554l2.965-1.036c2.926-1.023,4.923-3.735,5.029-6.829l0,0
							c0.134-3.933,3.287-7.095,7.224-7.245l8.239-0.314c1.837-0.07,3.636,0.535,5.057,1.701l8.397,6.892
							c2.319,1.904,3.282,5.004,2.448,7.884l-4.484,15.491c-0.52,1.796-1.692,3.333-3.287,4.312l-15.511,9.512
							C1125.215,1336.871,1121.553,1336.528,1119.079,1334.283z"/>
					</g>
					<g>
						<path style="fill:#366F90;" d="M1122.531,1317.078l-0.602-0.074l1.29-9.436c0.129-1.006,0-2.049-0.387-2.994l-3.132-7.571
							l0.565-0.221l3.132,7.57c0.424,1.043,0.571,2.184,0.424,3.288L1122.531,1317.078z"/>
					</g>
					<g>
						<path style="fill:#366F90;" d="M1130.208,1334.071l-0.59-0.172l2.733-9.779c0.393-1.386,1.265-2.589,2.469-3.374l2.359-1.546
							c1.609-1.043,2.666-2.81,2.825-4.736l0.16-1.877l0.602,0.049l-0.16,1.877c-0.172,2.11-1.327,4.049-3.096,5.202l-2.358,1.546
							c-1.075,0.699-1.861,1.779-2.211,3.031L1130.208,1334.071z"/>
					</g>
					<g>
						<path style="fill:#366F90;" d="M1132.315,1309.36l-0.516-0.319l4.349-6.908c1.431-2.282,1.492-5.141,0.166-7.46l-0.565-0.994
							l0.528-0.294l0.565,0.994c1.437,2.515,1.37,5.607-0.178,8.074L1132.315,1309.36z"/>
					</g>
				</g>
				<g>
					<g>
						<path style="fill:#FFFFFF;" d="M1082.75,1386.985l4.743-12.93c0.793-2.161,2.534-3.839,4.724-4.553l7.275-2.372
							c2.851-0.93,5.983-0.077,7.967,2.17l2.078,2.353c2.051,2.322,5.318,3.148,8.228,2.079l0,0
							c3.698-1.358,7.818,0.368,9.441,3.954l3.395,7.505c0.757,1.673,0.874,3.566,0.328,5.32l-3.227,10.366
							c-0.892,2.863-3.404,4.922-6.389,5.236l-16.055,1.687c-1.861,0.196-3.729-0.31-5.237-1.417l-14.666-10.768
							C1082.661,1393.638,1081.599,1390.121,1082.75,1386.985z"/>
					</g>
					<g>
						<path style="fill:#366F90;" d="M1099.996,1383.703l-0.147-0.589l9.244-2.368c0.983-0.258,1.885-0.773,2.61-1.485l5.847-5.755
							l0.43,0.442l-5.847,5.755c-0.805,0.785-1.8,1.35-2.887,1.632L1099.996,1383.703z"/>
					</g>
					<g>
						<path style="fill:#366F90;" d="M1107.12,1399.776c-1.382,0-2.745-0.417-3.919-1.227l-2.315-1.607
							c-0.891-0.614-1.953-0.932-3.047-0.932c-0.196,0-0.393,0.012-0.596,0.037l-10.104,1.166l-0.074-0.613l10.11-1.166
							c1.437-0.147,2.875,0.196,4.054,1.018l2.316,1.607c1.609,1.104,3.593,1.423,5.46,0.822l1.806-0.564l0.184,0.589l-1.806,0.564
							C1108.509,1399.678,1107.814,1399.776,1107.12,1399.776z"/>
					</g>
					<g>
						<path style="fill:#366F90;" d="M1120.264,1391.384c-0.454,0-0.909-0.037-1.37-0.123l-8.046-1.423l0.111-0.589l8.046,1.423
							c2.641,0.491,5.319-0.564,6.971-2.663l0.706-0.896l0.479,0.368l-0.706,0.896
							C1124.95,1390.304,1122.66,1391.384,1120.264,1391.384z"/>
					</g>
				</g>
				<g>
					<g>
						<path style="fill:#366F90;" d="M1115.277,1411.408h-58.447c-13.402,0-24.912-9.558-27.375-22.724l-26.374-141.287l1.892-0.135
							l158.776-11.804l-0.282,2.086l-20.606,149.839C1140.975,1401.077,1129.121,1411.408,1115.277,1411.408z M1007.123,1250.514
							l25.686,137.557c2.156,11.546,12.259,19.926,24.021,19.926h58.447c12.149,0,22.553-9.055,24.206-21.079l20.324-147.753
							L1007.123,1250.514z"/>
					</g>
					<g>
						<polygon style="fill:#366F90;" points="1142.228,1377.335 1027.815,1372.684 1027.95,1369.274 1142.363,1373.924 						"/>
					</g>
					<g>
						<polygon style="fill:#366F90;" points="1021.182,1336.354 1021.022,1332.967 1149.156,1326.783 1149.316,1330.17 						"/>
					</g>
					<g>
						
							<rect x="1013.545" y="1289.001" transform="matrix(0.9983 -0.0579 0.0579 0.9983 -72.9435 64.9774)" style="fill:#366F90;" width="141.572" height="3.392"/>
					</g>
					<g>
						
							<rect x="1061.612" y="1244.861" transform="matrix(0.9968 -0.0803 0.0803 0.9968 -103.1743 89.6862)" style="fill:#366F90;" width="3.401" height="165.108"/>
					</g>
					<g>
						
							<rect x="1019.6" y="1323.619" transform="matrix(0.1008 -0.9949 0.9949 0.1008 -325.4907 2290.5117)" style="fill:#366F90;" width="169.611" height="3.408"/>
					</g>
				</g>
			</g>
		</g>
		<g>
			<path style="fill:#73A0D1;" d="M1161.459,1241.548l-160.994,11.142c-2.805,0.194-5.259-1.942-5.453-4.747l-0.111-1.598
				c-0.195-2.806,1.942-5.26,4.747-5.454l160.994-11.141c2.805-0.194,5.259,1.942,5.453,4.747l0.111,1.598
				C1166.401,1238.899,1164.265,1241.354,1161.459,1241.548z"/>
		</g>
	</g>
	<g>
		<g>
			<rect x="944.642" y="1076.167" style="fill:#331832;" width="16.37" height="388.408"/>
		</g>
		<g>
			<path style="fill:#331832;" d="M1021.927,1470.555H883.726l0,0c0-12.037,9.758-21.795,21.794-21.795h94.772
				c11.949,0,21.635,9.686,21.635,21.635V1470.555z"/>
		</g>
		<g>
			<g>
				<ellipse style="fill:#68A1BF;" cx="952.827" cy="1091.201" rx="227.055" ry="32.599"/>
			</g>
			<g>
				<rect x="725.771" y="1076.167" style="fill:#68A1BF;" width="454.111" height="15.034"/>
			</g>
			<g>
				<ellipse style="fill:#B8D5DC;" cx="952.827" cy="1076.167" rx="227.055" ry="32.599"/>
			</g>
			<g>
				<path style="fill:#444092;" d="M1141.38,1095.178c-0.387,0-0.737-0.27-0.823-0.663c-0.104-0.454,0.184-0.908,0.639-1.006
					c0.221-0.049,22.197-5.031,30.433-9.546c0.387-0.245,0.915-0.086,1.148,0.331c0.221,0.405,0.074,0.92-0.338,1.141
					c-8.439,4.638-29.961,9.509-30.876,9.718C1141.503,1095.166,1141.442,1095.178,1141.38,1095.178z"/>
			</g>
		</g>
		<g>
			<g>
				<polygon style="fill:#EF8062;" points="1071.038,1076.068 853.335,1076.068 853.335,714.851 1071.038,807.486 				"/>
			</g>
			<g>
				<rect x="800.475" y="782.168" style="fill:#366F90;" width="129.267" height="293.9"/>
			</g>
			<g>
				<rect x="800.475" y="782.168" style="fill:#DAEBE8;" width="129.267" height="44.491"/>
			</g>
			<g>
				<rect x="800.475" y="881.748" style="fill:#DAEBE8;" width="129.267" height="44.491"/>
			</g>
			<g>
				<rect x="800.475" y="986.239" style="fill:#DAEBE8;" width="129.267" height="44.491"/>
			</g>
			<g>
				
					<rect x="954.123" y="623.59" transform="matrix(0.3953 -0.9186 0.9186 0.3953 -115.8888 1337.7908)" style="fill:#331832;" width="7.938" height="266.644"/>
			</g>
			<g>
				<rect x="929.742" y="989.756" style="fill:#DAEBE8;" width="195.413" height="86.312"/>
			</g>
			<g>
				<g>
					<rect x="1014.219" y="810.454" style="fill:#DAEBE8;" width="25.702" height="151.016"/>
				</g>
				<g style="opacity:0.4;">
					<polygon style="fill:#68A1BF;" points="1014.219,810.454 1014.219,849.152 1039.921,829.803 1039.921,810.454 					"/>
				</g>
				<g style="opacity:0.4;">
					<polygon style="fill:#68A1BF;" points="1014.219,882.564 1039.921,862.177 1039.921,912.593 1014.219,942.593 					"/>
				</g>
				<g style="opacity:0.4;">
					<polygon style="fill:#68A1BF;" points="1014.219,961.47 1039.921,961.47 1039.921,942.593 1014.219,953.636 					"/>
				</g>
			</g>
			<g style="opacity:0.4;">
				<polygon style="fill:#68A1BF;" points="929.742,1076.068 929.742,989.756 995.131,989.756 955.703,1076.068 				"/>
			</g>
			<g style="opacity:0.4;">
				<polygon style="fill:#68A1BF;" points="1033.496,989.756 981.604,1076.068 1039.639,1076.068 1099.263,989.756 				"/>
			</g>
			<g style="opacity:0.4;">
				<polygon style="fill:#68A1BF;" points="1125.155,1021.469 1071.038,1076.068 1125.155,1076.068 				"/>
			</g>
			<g>
				<rect x="929.742" y="986.239" style="fill:#331832;" width="200.657" height="6.915"/>
			</g>
			<g>
				<g style="opacity:0.4;">
					<polygon style="fill:#68A1BF;" points="831.847,782.168 813.704,826.659 800.475,826.659 800.475,782.168 					"/>
				</g>
				<g style="opacity:0.4;">
					<polygon style="fill:#68A1BF;" points="870.827,782.168 853.335,826.659 899.126,826.659 920.293,782.168 					"/>
				</g>
			</g>
			<g>
				<g style="opacity:0.4;">
					<polygon style="fill:#68A1BF;" points="831.847,881.748 813.704,926.239 800.475,926.239 800.475,881.748 					"/>
				</g>
				<g style="opacity:0.4;">
					<polygon style="fill:#68A1BF;" points="870.827,881.748 853.335,926.239 899.126,926.239 920.293,881.748 					"/>
				</g>
			</g>
			<g>
				<g style="opacity:0.4;">
					<polygon style="fill:#68A1BF;" points="831.847,986.239 813.704,1030.73 800.475,1030.73 800.475,986.239 					"/>
				</g>
				<g style="opacity:0.4;">
					<polygon style="fill:#68A1BF;" points="870.827,986.239 853.335,1030.73 899.126,1030.73 920.293,986.239 					"/>
				</g>
			</g>
			<g>
				<rect x="781.941" y="1066.668" style="fill:#331832;" width="354.553" height="14.714"/>
			</g>
		</g>
	</g>
	<g style="opacity:0.6;">
		<g>
			<g>
				<polygon style="fill:#FFFFFF;" points="1589.86,1039.485 1404.908,1039.485 1338.931,705.112 1540.803,790.863 				"/>
				<path style="fill:#331832;" d="M1590.487,1040.001h-186.003l-0.08-0.417l-66.167-335.322l0.897,0.368l202.126,85.864l0.049,0.27
					L1590.487,1040.001z M1405.331,1038.97h183.903l-48.884-247.74l-200.725-85.275L1405.331,1038.97z"/>
			</g>
		</g>
		<g>
			<g>
				<polygon style="fill:#FFFFFF;" points="1469.82,1039.485 1360,1039.485 1306.318,767.426 1416.139,767.426 				"/>
				<path style="fill:#331832;" d="M1470.448,1040.001h-110.875l-0.08-0.417l-53.804-272.672h110.875l0.08,0.417L1470.448,1040.001z
					 M1360.421,1038.97h108.774l-53.478-271.028h-108.774L1360.421,1038.97z"/>
			</g>
		</g>
		<g>
			<g>
				<polygon style="fill:#FFFFFF;" points="1424.265,808.611 1314.444,808.611 1306.318,767.426 1416.139,767.426 				"/>
				<path style="fill:#331832;" d="M1424.893,809.132h-110.875l-0.08-0.417l-8.249-41.803h110.875l0.08,0.417L1424.893,809.132z
					 M1314.866,808.101h108.774l-7.923-40.159h-108.774L1314.866,808.101z"/>
			</g>
		</g>
		<g>
			<g>
				<polygon style="fill:#FFFFFF;" points="1442.454,900.791 1332.633,900.791 1324.507,859.606 1434.327,859.606 				"/>
				<path style="fill:#331832;" d="M1443.08,901.303h-110.869l-0.08-0.417l-8.249-41.791h110.869l0.08,0.417L1443.08,901.303z
					 M1333.059,900.272h108.768l-7.923-40.147h-108.768L1333.059,900.272z"/>
			</g>
		</g>
		<g>
			<g>
				<polygon style="fill:#FFFFFF;" points="1461.539,997.516 1351.719,997.516 1343.592,956.331 1453.413,956.331 				"/>
				<path style="fill:#331832;" d="M1462.163,998.026h-110.869l-0.08-0.417l-8.249-41.791h110.869l0.08,0.417L1462.163,998.026z
					 M1352.142,996.995h108.768l-7.923-40.147h-108.768L1352.142,996.995z"/>
			</g>
		</g>
		<g>
			<g>
				<polygon style="fill:#FFFFFF;" points="1548.407,796.012 1321.076,698.452 1322.811,692.087 1550.142,789.647 				"/>
				<path style="fill:#331832;" d="M1548.752,796.715l-0.547-0.233l-227.744-97.741l2.015-7.35l0.541,0.233l227.738,97.729
					L1548.752,796.715z M1321.69,698.151l226.374,97.165l1.462-5.374l-226.374-97.152L1321.69,698.151z"/>
			</g>
		</g>
		<g>
			<g>
				<polygon style="fill:#FFFFFF;" points="1635.836,1039.485 1469.82,1039.485 1454.055,959.587 1620.071,959.587 				"/>
				<path style="fill:#331832;" d="M1636.459,1040.001h-167.061l-0.08-0.417l-15.889-80.515h167.068l0.08,0.417L1636.459,1040.001z
					 M1470.246,1038.97h164.961l-15.557-78.87h-164.967L1470.246,1038.97z"/>
			</g>
		</g>
		<g>
			<g>
				<g>
					<polygon style="fill:#FFFFFF;" points="1542.493,933.403 1520.657,933.403 1493.074,793.61 1514.91,793.61 					"/>
					<path style="fill:#331832;" d="M1543.12,933.916h-22.885l-0.08-0.417l-27.706-140.404h22.885l0.08,0.417L1543.12,933.916z
						 M1521.083,932.885h20.784l-27.381-138.759h-20.784L1521.083,932.885z"/>
				</g>
			</g>
			<g style="opacity:0.4;">
				<g>
					<polygon style="fill:#FFFFFF;" points="1493.074,793.61 1500.142,829.432 1518.444,811.521 1514.91,793.61 					"/>
					<path style="fill:#331832;" d="M1499.825,830.457l-7.376-37.362h22.885l0.08,0.417l3.587,18.184l-0.196,0.196L1499.825,830.457
						z M1493.702,794.126l6.762,34.27l17.419-17.043l-3.396-17.227H1493.702z"/>
				</g>
			</g>
			<g style="opacity:0.4;">
				<g>
					<polygon style="fill:#FFFFFF;" points="1506.245,860.362 1524.357,841.489 1533.566,888.159 1517.209,915.929 					"/>
					<path style="fill:#331832;" d="M1516.961,917.352l-0.258-1.325l-11.019-55.828l0.19-0.196l18.794-19.583l9.434,47.84
						l-0.098,0.159L1516.961,917.352z M1506.802,860.518l10.65,53.987l15.57-26.441l-8.98-45.509L1506.802,860.518z"/>
				</g>
			</g>
			<g style="opacity:0.4;">
				<g>
					<polygon style="fill:#FFFFFF;" points="1520.657,933.403 1542.493,933.403 1539.045,915.929 1519.226,926.152 					"/>
					<path style="fill:#331832;" d="M1543.12,933.916h-22.885l-1.585-8.049l0.344-0.172l20.428-10.54l0.129,0.675L1543.12,933.916z
						 M1521.083,932.885h20.784l-3.194-16.184l-18.868,9.73L1521.083,932.885z"/>
				</g>
			</g>
		</g>
		<g style="opacity:0.4;">
			<g>
				<polygon style="fill:#FFFFFF;" points="1469.82,1039.485 1454.055,959.587 1509.608,959.587 1491.876,1039.485 				"/>
				<path style="fill:#331832;" d="M1492.289,1040.001h-22.891l-0.08-0.417l-15.889-80.515h56.819l-0.135,0.626L1492.289,1040.001z
					 M1470.246,1038.97h21.22l17.505-78.87h-54.289L1470.246,1038.97z"/>
			</g>
		</g>
		<g style="opacity:0.4;">
			<g>
				<polygon style="fill:#FFFFFF;" points="1542.201,959.587 1513.88,1039.485 1563.184,1039.485 1598.074,959.587 				"/>
				<path style="fill:#331832;" d="M1563.524,1040.001h-50.37l0.24-0.687l28.443-80.245h57.022l-0.313,0.724L1563.524,1040.001z
					 M1514.603,1038.97h48.245l34.438-78.87h-54.725L1514.603,1038.97z"/>
			</g>
		</g>
		<g style="opacity:0.4;">
			<g>
				<polygon style="fill:#FFFFFF;" points="1625.863,988.944 1589.86,1039.485 1635.836,1039.485 				"/>
				<path style="fill:#331832;" d="M1636.459,1040.001h-47.594l37.275-52.331l0.227,1.178L1636.459,1040.001z M1590.855,1038.97
					h44.351l-9.618-48.748L1590.855,1038.97z"/>
			</g>
		</g>
		<g>
			<g>
				<polygon style="fill:#FFFFFF;" points="1625.147,962.733 1454.676,962.733 1453.413,956.331 1623.884,956.331 				"/>
				<path style="fill:#331832;" d="M1625.772,963.253h-171.52l-1.468-7.436h171.526L1625.772,963.253z M1455.099,962.222h169.42
					l-1.056-5.374h-169.426L1455.099,962.222z"/>
			</g>
		</g>
		<g>
			<g style="opacity:0.4;">
				<g>
					<polygon style="fill:#FFFFFF;" points="1332.97,767.426 1325.683,808.611 1314.444,808.611 1306.318,767.426 					"/>
					<path style="fill:#331832;" d="M1326.112,809.132h-12.094l-0.08-0.417l-8.249-41.803h27.897l-0.11,0.601L1326.112,809.132z
						 M1314.866,808.101h10.386l7.106-40.159h-25.415L1314.866,808.101z"/>
				</g>
			</g>
			<g style="opacity:0.4;">
				<g>
					<polygon style="fill:#FFFFFF;" points="1366.087,767.426 1359.353,808.611 1398.255,808.611 1408.111,767.426 					"/>
					<path style="fill:#331832;" d="M1398.661,809.132h-39.917l6.904-42.221h43.116L1398.661,809.132z M1359.96,808.101h37.89
						l9.612-40.159h-40.942L1359.96,808.101z"/>
				</g>
			</g>
		</g>
		<g>
			<g style="opacity:0.4;">
				<g>
					<polygon style="fill:#FFFFFF;" points="1351.159,859.606 1343.872,900.791 1332.633,900.791 1324.507,859.606 					"/>
					<path style="fill:#331832;" d="M1344.305,901.303h-12.094l-0.08-0.417l-8.249-41.791h27.891l-0.111,0.601L1344.305,901.303z
						 M1333.059,900.272h10.386l7.1-40.147h-25.409L1333.059,900.272z"/>
				</g>
			</g>
			<g style="opacity:0.4;">
				<g>
					<polygon style="fill:#FFFFFF;" points="1384.276,859.606 1377.542,900.791 1416.444,900.791 1426.3,859.606 					"/>
					<path style="fill:#331832;" d="M1416.847,901.303h-39.917l6.91-42.208h43.11L1416.847,901.303z M1378.147,900.272h37.89
						l9.612-40.147h-40.936L1378.147,900.272z"/>
				</g>
			</g>
		</g>
		<g>
			<g style="opacity:0.4;">
				<g>
					<polygon style="fill:#FFFFFF;" points="1370.245,956.331 1362.958,997.516 1351.719,997.516 1343.592,956.331 					"/>
					<path style="fill:#331832;" d="M1363.388,998.026h-12.094l-0.08-0.417l-8.249-41.791h27.891l-0.111,0.601L1363.388,998.026z
						 M1352.142,996.995h10.386l7.1-40.147h-25.409L1352.142,996.995z"/>
				</g>
			</g>
			<g style="opacity:0.4;">
				<g>
					<polygon style="fill:#FFFFFF;" points="1403.361,956.331 1396.627,997.516 1435.529,997.516 1445.385,956.331 					"/>
					<path style="fill:#331832;" d="M1435.937,998.026h-39.917l6.903-42.208h43.11L1435.937,998.026z M1397.236,996.995h37.89
						l9.606-40.147h-40.936L1397.236,996.995z"/>
				</g>
			</g>
		</g>
		<g>
			<g>
				<polygon style="fill:#FFFFFF;" points="1646.44,1044.404 1345.225,1044.404 1342.537,1030.783 1643.752,1030.783 				"/>
				<path style="fill:#331832;" d="M1647.067,1044.921h-302.264l-0.08-0.417l-2.813-14.233h302.265l0.08,0.417L1647.067,1044.921z
					 M1345.65,1043.89h300.164l-2.488-12.589h-300.164L1345.65,1043.89z"/>
			</g>
		</g>
	</g>
	<g>
		<g>
			<path style="fill:#EF9F6F;" d="M1442.454,705.563c0,0,2.678,39.902,47.25,34.07c44.572-5.833,27.942-42.407,27.942-42.407
				l-31.426-15.113L1442.454,705.563z"/>
		</g>
		<g>
			<path style="fill:#68A1BF;" d="M1762.958,680.142c0,0-125.938,65.642-266.453,1.26c0,0-24.762,46.877-20.696,62.931
				c4.389,17.33,38.421,38.029,137.672,49.277c105.79,11.99,173.899-26.184,173.899-26.184L1762.958,680.142z"/>
		</g>
		<g>
			<path style="fill:#331832;" d="M1842.35,1421.706c0,0,1.129,18.577-11.874,24.832c-13.003,6.255-51.594,13.946-35.973,24.755
				c8.963,6.202,47.989-1.22,59.115-2.069c11.129-0.848,21.972,2.875,29.632-4.695c8.427-8.328-4.005-45.635-4.005-45.635
				s-9.193,5.393-17.847,5.842C1848.927,1425.384,1842.35,1421.706,1842.35,1421.706z"/>
		</g>
		<g>
			<path style="fill:#331832;" d="M2034.503,1350.159c0,0,30.337,72.593,24.846,85.845c-5.491,13.252-29.097,44.477-10.184,42.219
				c10.853-1.296,34.963-32.606,42.69-40.588c7.728-7.983,18.316-12.369,18.939-23.073c0.686-11.776-38.141-48.436-38.141-48.436
				s-4.938-53.314-11.089-47.263C2052.701,1327.583,2034.503,1350.159,2034.503,1350.159z"/>
		</g>
		<g>
			<path style="fill:#EF8062;" d="M1809.593,542.502c0,0-6.869-31.447,23.068-36.794c29.937-5.347,25.113,16.494,31.099,21.467
				c5.986,4.973-6.38,22.146-20.707,25.483C1828.727,555.993,1809.593,542.502,1809.593,542.502z"/>
		</g>
		<g>
			<path style="fill:#EF8062;" d="M1728.734,963.599c4.046-59.043,131.283,6.403,131.283,6.403s53.564,405.143,29.136,461.997
				c-4.821,11.222-25.604,11.037-35.331,9.984c-68.811-7.445-85.882-209.93-103.839-298.922
				C1740.973,1098.413,1726.287,999.311,1728.734,963.599z"/>
		</g>
		<g>
			<path style="fill:#331832;" d="M1973.803,962.582c-3.617,14.5-61.28,29.71-130.304,14.341
				c-69.024-15.369-122.881-31.707-119.264-46.207c3.617-14.5,63.338-21.672,132.362-6.303
				C1925.621,939.781,1977.42,948.081,1973.803,962.582z"/>
		</g>
		<g>
			<path style="fill:#68A1BF;" d="M1751.749,738.447c-16.983-7.259-32.478-17.813-32.478-17.813s36.425-60.564,112.855-56.552
				c10.584,0.556,58.271,9.849,68.659,10.417c103.07,5.642,73.489,282.461,73.018,288.081
				c-133.041-55.918-249.568-31.866-249.568-31.866C1723.26,831.613,1741.102,731.485,1751.749,738.447z"/>
		</g>
		<g>
			<path style="fill:#EF8062;" d="M1950.096,965.604c0,0-115.984-34.876-211.928-29.227c-4.405,0.259-7.922,3.527-8.184,7.633
				c0,0-1.895,33.204-1.045,44.234c1.881,24.413,229.469,15.458,229.469,15.458L1950.096,965.604z"/>
		</g>
		<g>
			<path style="fill:#FFB27D;" d="M1887.741,672.19c-11.66,12.628-24.75,16.687-41.817,16.687
				c-25.845,0-13.798-24.794-13.798-24.794c6.349-0.141,9.815-3.137,10.346-9.031l0.632-7.244l0.311-3.591l1.022-11.475
				l0.909-10.305l3.727-42.264l11.916,43.034l2.027,7.31l6.984,25.225c2.234,8.042,8.986,14.275,17.61,16.415
				C1887.65,672.164,1887.701,672.184,1887.741,672.19z"/>
		</g>
		<g>
			<path style="fill:#331832;" d="M1863.016,630.518c0,0-7.625,12.484-19.601,13.699l1.022-11.475
				C1851.909,631.361,1863.016,630.518,1863.016,630.518z"/>
		</g>
		<g>
			<path style="fill:#EF8062;" d="M1900.925,580.624c0,0-2.88,6.61-0.99,21.283c2.766,21.469-23.895,26.405-29.373,19.6
				c-0.678-0.842,6.21-35.68,6.21-35.68l8.809-3.298L1900.925,580.624z"/>
		</g>
		<g>
			
				<ellipse transform="matrix(0.2273 -0.9738 0.9738 0.2273 855.1136 2250.8279)" style="fill:#FFB27D;" cx="1845.924" cy="586.561" rx="49.158" ry="42.549"/>
		</g>
		<g>
			<path style="fill:#EF8062;" d="M1835.426,546.952c0.923,1.658-9.864,25.626,38.704,38.747
				c48.568,13.122,28.13-47.215-8.227-53.771c-52.495-9.466-65.692,22.503-62.603,35.143S1835.426,546.952,1835.426,546.952z"/>
		</g>
		<g>
			<path style="fill:#EF8062;" d="M1869.989,576.972c0,0,16.938,22.827,6.525,42.15c0,0,13.739-10.261,14.743-14.688
				c1.004-4.427,0.568-21.001,0.568-21.001L1869.989,576.972z"/>
		</g>
		<g>
			<path style="fill:#FFB27D;" d="M1881.219,599.151c-5.482,3.557-12.23,3.027-15.073-1.184c-2.843-4.212-0.703-10.51,4.779-14.067
				c5.482-3.557,12.23-3.027,15.073,1.184C1888.841,589.296,1886.701,595.594,1881.219,599.151z"/>
		</g>
		<g>
			<g>
				<path style="fill:#080435;" d="M1841.769,586.439c-0.269-0.112-0.48-0.335-0.551-0.623c-0.12-0.486,0.203-0.97,0.725-1.084
					c0.307-0.066,7.275-2.225,11.982,4.374c0.297,0.416,0.196,0.974-0.245,1.259c-0.44,0.284-0.956,0.112-1.351-0.228
					c-3.944-3.395-9.693-3.696-9.949-3.642C1842.168,586.54,1841.955,586.516,1841.769,586.439z"/>
			</g>
		</g>
		<g>
			<path style="fill:#080435;" d="M1847.72,597.354c-0.282,2.141-1.863,3.723-3.531,3.532c-1.667-0.191-2.791-2.082-2.508-4.223
				s1.863-3.723,3.53-3.532C1846.879,593.322,1848.002,595.213,1847.72,597.354z"/>
		</g>
		<g>
			<g>
				<path style="fill:#080435;" d="M1806.772,586.146c-0.294-0.008-0.581-0.14-0.764-0.381c-0.31-0.407-0.208-0.969,0.227-1.259
					c0.257-0.17,5.817-4.64,12.866-0.209c0.444,0.279,0.58,0.831,0.288,1.251c-0.291,0.419-0.839,0.443-1.342,0.269
					c-5.034-1.739-10.473,0.024-10.688,0.164C1807.182,586.098,1806.975,586.151,1806.772,586.146z"/>
			</g>
		</g>
		<g>
			<path style="fill:#080435;" d="M1816.736,594.126c0.614,2.08-0.201,4.103-1.821,4.519c-1.62,0.415-3.431-0.934-4.046-3.014
				c-0.614-2.08,0.201-4.103,1.821-4.519C1814.31,590.696,1816.122,592.046,1816.736,594.126z"/>
		</g>
		<g style="opacity:0.3;">
			
				<ellipse transform="matrix(0.076 -0.9971 0.9971 0.076 1117.1282 2392.8484)" style="fill:#FFFFFF;" cx="1849.656" cy="593.663" rx="22.63" ry="16.482"/>
		</g>
		<g style="opacity:0.3;">
			
				<ellipse transform="matrix(0.1731 -0.9849 0.9849 0.1731 910.3441 2271.5193)" style="fill:#FFFFFF;" cx="1808.007" cy="593.591" rx="22.359" ry="14.269"/>
		</g>
		<g>
			<g>
				<path style="fill:#331832;" d="M1867.154,592.506c0.062-1.591,0.019-3.214-0.175-4.825c-0.055-0.559-0.127-1.12-0.221-1.666
					c-0.158-0.935-0.34-1.838-0.579-2.733c-1.625-6.204-5.096-11.076-9.769-13.61c-3.689-2.013-7.736-2.323-11.699-0.918
					c-0.806,0.296-1.603,0.645-2.357,1.07c-6.115,3.348-10.495,10.696-11.674,18.989c-0.139,0.943-0.239,1.875-0.269,2.834
					c-0.135,2.251-0.015,4.522,0.363,6.796c0.374,2.187,0.954,4.249,1.729,6.133c1.858,4.587,4.843,8.167,8.619,10.209
					c1.524,0.823,3.133,1.365,4.752,1.617c0.487,0.07,0.976,0.124,1.472,0.144c1.813,0.091,3.651-0.194,5.475-0.842
					c1.903-0.671,3.663-1.707,5.251-3.042c4.009-3.342,6.961-8.541,8.291-14.421c0.155-0.597,0.276-1.216,0.38-1.837
					C1866.957,595.127,1867.1,593.823,1867.154,592.506z M1837.793,610.175c-1.526-1.7-2.823-3.78-3.778-6.137
					c-0.753-1.795-1.311-3.768-1.65-5.83c-0.339-2.062-0.457-4.126-0.376-6.161c0.033-0.976,0.118-1.927,0.257-2.87
					c1.088-8.083,5.322-15.212,11.272-18.239c0.569-0.313,1.163-0.554,1.772-0.776c1.61-0.576,3.22-0.824,4.814-0.749
					c1.89,0.067,3.741,0.593,5.501,1.553c2.421,1.314,4.53,3.391,6.16,6.018c0.657,1.041,1.226,2.173,1.723,3.398
					c0.025,0.073,0.053,0.128,0.077,0.201c0.03,0.038,0.043,0.075,0.055,0.111c0.266,0.624,0.492,1.258,0.677,1.922
					c0.38,1.156,0.655,2.383,0.871,3.635c0.232,1.375,0.357,2.735,0.388,4.099c0.032,0.916,0.01,1.825-0.049,2.728
					c-0.066,0.954-0.169,1.902-0.305,2.829l-0.003,0.017c-0.941,6.091-3.662,11.564-7.591,15.09
					c-1.593,1.473-3.403,2.587-5.365,3.284c-2.079,0.732-4.179,0.927-6.231,0.613c-1.403-0.22-2.764-0.693-4.083-1.417
					c-1.492-0.801-2.857-1.91-4.073-3.255C1837.841,610.216,1837.826,610.197,1837.793,610.175z"/>
			</g>
		</g>
		<g>
			<g>
				<path style="fill:#331832;" d="M1822.377,593.89c0.07-0.644,0.12-1.273,0.154-1.922c-0.275,0.098-0.472,0.173-0.573,0.227
					c-0.019,3.438-0.558,6.783-1.505,9.811c0.003-0.017,0.005-0.034,0.026-0.048c0.131-0.342,0.241-0.67,0.354-1.015
					c0.009-0.05,0.038-0.115,0.046-0.166c0.139-0.393,0.266-0.822,0.372-1.236c0.176-0.611,0.354-1.239,0.496-1.872
					c0.142-0.633,0.267-1.269,0.376-1.924C1822.224,595.141,1822.309,594.517,1822.377,593.89z M1822.377,593.89
					c0.07-0.644,0.12-1.273,0.154-1.922c-0.275,0.098-0.472,0.173-0.573,0.227c-0.019,3.438-0.558,6.783-1.505,9.811
					c0.003-0.017,0.005-0.034,0.026-0.048c0.131-0.342,0.241-0.67,0.354-1.015c0.009-0.05,0.038-0.115,0.046-0.166
					c0.139-0.393,0.266-0.822,0.372-1.236c0.176-0.611,0.354-1.239,0.496-1.872c0.142-0.633,0.267-1.269,0.376-1.924
					C1822.224,595.141,1822.309,594.517,1822.377,593.89z M1822.377,593.89c0.07-0.644,0.12-1.273,0.154-1.922
					c-0.275,0.098-0.472,0.173-0.573,0.227c-0.019,3.438-0.558,6.783-1.505,9.811c0.003-0.017,0.005-0.034,0.026-0.048
					c0.131-0.342,0.241-0.67,0.354-1.015c0.009-0.05,0.038-0.115,0.046-0.166c0.139-0.393,0.266-0.822,0.372-1.236
					c0.176-0.611,0.354-1.239,0.496-1.872c0.142-0.633,0.267-1.269,0.376-1.924C1822.224,595.141,1822.309,594.517,1822.377,593.89z
					 M1822.377,593.89c0.07-0.644,0.12-1.273,0.154-1.922c-0.275,0.098-0.472,0.173-0.573,0.227
					c-0.019,3.438-0.558,6.783-1.505,9.811c0.003-0.017,0.005-0.034,0.026-0.048c0.131-0.342,0.241-0.67,0.354-1.015
					c0.009-0.05,0.038-0.115,0.046-0.166c0.139-0.393,0.266-0.822,0.372-1.236c0.176-0.611,0.354-1.239,0.496-1.872
					c0.142-0.633,0.267-1.269,0.376-1.924C1822.224,595.141,1822.309,594.517,1822.377,593.89z M1822.377,593.89
					c0.07-0.644,0.12-1.273,0.154-1.922c-0.275,0.098-0.472,0.173-0.573,0.227c-0.019,3.438-0.558,6.783-1.505,9.811
					c0.003-0.017,0.005-0.034,0.026-0.048c0.131-0.342,0.241-0.67,0.354-1.015c0.009-0.05,0.038-0.115,0.046-0.166
					c0.139-0.393,0.266-0.822,0.372-1.236c0.176-0.611,0.354-1.239,0.496-1.872c0.142-0.633,0.267-1.269,0.376-1.924
					C1822.224,595.141,1822.309,594.517,1822.377,593.89z M1822.377,593.89c0.07-0.644,0.12-1.273,0.154-1.922
					c-0.275,0.098-0.472,0.173-0.573,0.227c-0.019,3.438-0.558,6.783-1.505,9.811c0.003-0.017,0.005-0.034,0.026-0.048
					c0.131-0.342,0.241-0.67,0.354-1.015c0.009-0.05,0.038-0.115,0.046-0.166c0.139-0.393,0.266-0.822,0.372-1.236
					c0.176-0.611,0.354-1.239,0.496-1.872c0.142-0.633,0.267-1.269,0.376-1.924C1822.224,595.141,1822.309,594.517,1822.377,593.89z
					 M1822.377,593.89c0.07-0.644,0.12-1.273,0.154-1.922c-0.275,0.098-0.472,0.173-0.573,0.227
					c-0.019,3.438-0.558,6.783-1.505,9.811c0.003-0.017,0.005-0.034,0.026-0.048c0.131-0.342,0.241-0.67,0.354-1.015
					c0.009-0.05,0.038-0.115,0.046-0.166c0.139-0.393,0.266-0.822,0.372-1.236c0.176-0.611,0.354-1.239,0.496-1.872
					c0.142-0.633,0.267-1.269,0.376-1.924C1822.224,595.141,1822.309,594.517,1822.377,593.89z M1822.377,593.89
					c0.07-0.644,0.12-1.273,0.154-1.922c-0.275,0.098-0.472,0.173-0.573,0.227c-0.019,3.438-0.558,6.783-1.505,9.811
					c0.003-0.017,0.005-0.034,0.026-0.048c0.131-0.342,0.241-0.67,0.354-1.015c0.009-0.05,0.038-0.115,0.046-0.166
					c0.139-0.393,0.266-0.822,0.372-1.236c0.176-0.611,0.354-1.239,0.496-1.872c0.142-0.633,0.267-1.269,0.376-1.924
					C1822.224,595.141,1822.309,594.517,1822.377,593.89z M1823.544,591.651c0.01-0.945-0.035-1.897-0.118-2.838
					c-0.045-0.505-0.108-1.014-0.171-1.522c-1.044-7.806-4.662-14.127-9.629-16.892c-1.186-0.636-2.385-1.085-3.623-1.298
					c-1.004-0.18-2.012-0.222-3.046-0.114c-0.734,0.083-1.443,0.239-2.184,0.476l-0.018-0.003c-0.173,0.044-0.37,0.118-0.547,0.179
					c-8.531,3.118-14.109,15.987-12.388,28.708c1.062,7.809,4.661,14.127,9.647,16.895c1.265,0.716,2.593,1.167,3.945,1.362
					c1.586,0.229,3.213,0.104,4.809-0.388c0.021-0.014,0.039-0.012,0.059-0.025c0.195-0.058,0.389-0.116,0.586-0.191
					c3.106-1.133,5.812-3.529,7.9-6.753l0.003-0.017l0.018,0.003c2.083-3.191,3.576-7.172,4.296-11.489
					C1823.41,595.777,1823.586,593.721,1823.544,591.651z M1820.31,602.416c-0.996,2.987-2.401,5.656-4.136,7.762
					c-1.443,1.787-3.112,3.162-4.949,3.998c-0.021,0.014-0.024,0.031-0.042,0.028c-0.003,0.017-0.021,0.014-0.021,0.014
					c-0.063,0.043-0.143,0.082-0.2,0.091c-0.224,0.123-0.459,0.209-0.695,0.295c-0.275,0.098-0.55,0.196-0.837,0.258
					c-2.418,0.665-4.878,0.361-7.14-0.913c-4.493-2.508-7.783-8.247-8.832-15.47c0.003-0.017-0.012-0.036-0.01-0.053
					s-0.01-0.053-0.007-0.07c0.003-0.017,0.003-0.017,0.006-0.034c-0.01-0.053-0.019-0.106-0.029-0.159
					c-1.623-12.088,3.486-24.251,11.388-27.133c0.511-0.184,1.013-0.318,1.528-0.416c1.032-0.212,2.07-0.234,3.079-0.088
					c1.154,0.167,2.289,0.555,3.37,1.158c0.085,0.047,0.169,0.093,0.251,0.157c2.169,1.277,4.062,3.323,5.53,5.926
					c1.523,2.715,2.598,6.018,3.091,9.702c0.07,0.578,0.14,1.156,0.192,1.731c0.075,0.991,0.111,1.995,0.111,2.992
					c-0.019,3.438-0.558,6.783-1.505,9.811C1820.394,602.136,1820.351,602.285,1820.31,602.416z M1822.377,593.89
					c0.07-0.644,0.12-1.273,0.154-1.922c-0.275,0.098-0.472,0.173-0.573,0.227c-0.019,3.438-0.558,6.783-1.505,9.811
					c0.003-0.017,0.005-0.034,0.026-0.048c0.131-0.342,0.241-0.67,0.354-1.015c0.009-0.05,0.038-0.115,0.046-0.166
					c0.139-0.393,0.266-0.822,0.372-1.236c0.176-0.611,0.354-1.239,0.496-1.872c0.142-0.633,0.267-1.269,0.376-1.924
					C1822.224,595.141,1822.309,594.517,1822.377,593.89z M1822.377,593.89c0.07-0.644,0.12-1.273,0.154-1.922
					c-0.275,0.098-0.472,0.173-0.573,0.227c-0.019,3.438-0.558,6.783-1.505,9.811c0.003-0.017,0.005-0.034,0.026-0.048
					c0.131-0.342,0.241-0.67,0.354-1.015c0.009-0.05,0.038-0.115,0.046-0.166c0.139-0.393,0.266-0.822,0.372-1.236
					c0.176-0.611,0.354-1.239,0.496-1.872c0.142-0.633,0.267-1.269,0.376-1.924C1822.224,595.141,1822.309,594.517,1822.377,593.89z
					 M1822.377,593.89c0.07-0.644,0.12-1.273,0.154-1.922c-0.275,0.098-0.472,0.173-0.573,0.227
					c-0.019,3.438-0.558,6.783-1.505,9.811c0.003-0.017,0.005-0.034,0.026-0.048c0.131-0.342,0.241-0.67,0.354-1.015
					c0.009-0.05,0.038-0.115,0.046-0.166c0.139-0.393,0.266-0.822,0.372-1.236c0.176-0.611,0.354-1.239,0.496-1.872
					c0.142-0.633,0.267-1.269,0.376-1.924C1822.224,595.141,1822.309,594.517,1822.377,593.89z M1822.377,593.89
					c0.07-0.644,0.12-1.273,0.154-1.922c-0.275,0.098-0.472,0.173-0.573,0.227c-0.019,3.438-0.558,6.783-1.505,9.811
					c0.003-0.017,0.005-0.034,0.026-0.048c0.131-0.342,0.241-0.67,0.354-1.015c0.009-0.05,0.038-0.115,0.046-0.166
					c0.139-0.393,0.266-0.822,0.372-1.236c0.176-0.611,0.354-1.239,0.496-1.872c0.142-0.633,0.267-1.269,0.376-1.924
					C1822.224,595.141,1822.309,594.517,1822.377,593.89z M1822.377,593.89c0.07-0.644,0.12-1.273,0.154-1.922
					c-0.275,0.098-0.472,0.173-0.573,0.227c-0.019,3.438-0.558,6.783-1.505,9.811c0.003-0.017,0.005-0.034,0.026-0.048
					c0.131-0.342,0.241-0.67,0.354-1.015c0.009-0.05,0.038-0.115,0.046-0.166c0.139-0.393,0.266-0.822,0.372-1.236
					c0.176-0.611,0.354-1.239,0.496-1.872c0.142-0.633,0.267-1.269,0.376-1.924C1822.224,595.141,1822.309,594.517,1822.377,593.89z
					 M1822.377,593.89c0.07-0.644,0.12-1.273,0.154-1.922c-0.275,0.098-0.472,0.173-0.573,0.227
					c-0.019,3.438-0.558,6.783-1.505,9.811c0.003-0.017,0.005-0.034,0.026-0.048c0.131-0.342,0.241-0.67,0.354-1.015
					c0.009-0.05,0.038-0.115,0.046-0.166c0.139-0.393,0.266-0.822,0.372-1.236c0.176-0.611,0.354-1.239,0.496-1.872
					c0.142-0.633,0.267-1.269,0.376-1.924C1822.224,595.141,1822.309,594.517,1822.377,593.89z M1822.377,593.89
					c0.07-0.644,0.12-1.273,0.154-1.922c-0.275,0.098-0.472,0.173-0.573,0.227c-0.019,3.438-0.558,6.783-1.505,9.811
					c0.003-0.017,0.005-0.034,0.026-0.048c0.131-0.342,0.241-0.67,0.354-1.015c0.009-0.05,0.038-0.115,0.046-0.166
					c0.139-0.393,0.266-0.822,0.372-1.236c0.176-0.611,0.354-1.239,0.496-1.872c0.142-0.633,0.267-1.269,0.376-1.924
					C1822.224,595.141,1822.309,594.517,1822.377,593.89z"/>
			</g>
		</g>
		<g>
			<g>
				<path style="fill:#331832;" d="M1820.89,592.401c-0.442-0.064-0.849-0.31-1.084-0.701c-0.406-0.676-0.146-1.53,0.579-1.908
					c0.232-0.121,5.778-2.93,13.529-0.057c0.772,0.286,1.149,1.102,0.842,1.821c-0.306,0.72-1.184,1.071-1.953,0.785
					c-6.435-2.387-10.905-0.125-10.949-0.102C1821.549,592.398,1821.21,592.447,1820.89,592.401z"/>
			</g>
		</g>
		<g>
			<path style="fill:#EF8062;" d="M1876.072,542.427c0,0,9.219-30.921,38.493-23.006c29.275,7.915,20.555,22.751,17.233,32.292
				c-2.475,7.108-16.484,17.026-30.873,13.93C1886.536,562.547,1876.072,542.427,1876.072,542.427z"/>
		</g>
		<g>
			<path style="fill:#EF8062;" d="M1889.858,641.219c-0.282,0-0.559-0.123-0.737-0.368c-0.055-0.086-6.007-8.27-17.026-12.454
				c-0.467-0.184-0.7-0.699-0.522-1.166c0.172-0.466,0.688-0.699,1.161-0.528c11.553,4.393,17.609,12.748,17.861,13.092
				c0.289,0.405,0.19,0.969-0.215,1.264C1890.221,641.17,1890.043,641.219,1889.858,641.219z"/>
		</g>
		<g>
			<path style="fill:#020202;" d="M1829.833,621.796c-3.028,0-6.093-0.736-8.23-3.092c-0.178-0.196-0.166-0.491,0.031-0.675
				c0.19-0.184,0.504-0.172,0.682,0.037c5.27,5.755,17.394,0.663,17.517,0.614c0.24-0.086,0.528,0.012,0.633,0.258
				c0.104,0.233-0.006,0.528-0.252,0.626C1839.887,619.71,1834.912,621.796,1829.833,621.796z"/>
		</g>
		<g>
			<path style="fill:#DAEBE8;" d="M1832.126,664.083c0,0-10.743,24.206,13.798,24.794c0,0-12.892,12.036-21.914,7.206
				c-9.022-4.83-0.384-9.123-4.223-12.343c-3.839-3.22-8.062-5.545-4.223-9.301c3.839-3.756,0-10.356,0-10.356
				S1826.229,661.777,1832.126,664.083z"/>
		</g>
		<g>
			<path style="fill:#DAEBE8;" d="M1823.55,724.215c0-1.985-1.727-3.594-3.857-3.594c-2.13,0-3.858,1.609-3.858,3.594
				c0,1.985,1.727,3.595,3.858,3.595C1821.823,727.81,1823.55,726.2,1823.55,724.215z"/>
		</g>
		<g>
			<path style="fill:#DAEBE8;" d="M1807.358,839.656c0-1.985-1.727-3.595-3.858-3.595c-2.13,0-3.857,1.609-3.857,3.595
				c0,1.985,1.727,3.594,3.857,3.594C1805.631,843.25,1807.358,841.641,1807.358,839.656z"/>
		</g>
		<g>
			<ellipse style="fill:#DAEBE8;" cx="1803.5" cy="787.349" rx="3.858" ry="3.595"/>
		</g>
		<g>
			<path style="fill:#DAEBE8;" d="M1887.741,672.19l17.465,3.176c0,0,3.097,8.464-5.457,11.147
				c-8.554,2.683-10.267,2.683-13.01,8.854c-2.742,6.171-13.396,6.44-17.14,4.293c-3.743-2.147-10.312,5.903-16.385,5.903
				s-9.66-10.03-7.291-16.687C1845.924,688.877,1868.738,685.235,1887.741,672.19z"/>
		</g>
		<g>
			<path style="fill:#331832;" d="M1735.019,786.911c-0.037,0-0.08-0.012-0.123-0.012c-0.313-0.074-0.516-0.38-0.448-0.699
				l8.894-42.49c0.068-0.295,0.338-0.466,0.694-0.454c0.313,0.074,0.516,0.38,0.448,0.699l-8.894,42.49
				C1735.535,786.715,1735.29,786.911,1735.019,786.911z"/>
		</g>
		<g>
			<path style="fill:#EF8062;" d="M1799.643,966.419c0,0,81.843,316.231,215.164,427.046c12.916,10.735,31.152,12.537,46.083,4.784
				l23.637-12.272c16.128-8.374,22.272-28.173,13.666-44.076c-35.399-65.414-119.628-231.155-148.097-376.297L1799.643,966.419z"/>
		</g>
		<g>
			<path style="fill:#331832;" d="M1885.424,1206.355c-0.35-0.847-35.47-84.441-47.705-131.901
				c-12.112-47.018-51.193-63.435-51.586-63.594l0.614-1.522c0.405,0.172,40.236,16.908,52.557,64.699
				c12.198,47.349,47.275,130.845,47.631,131.68L1885.424,1206.355z"/>
		</g>
		<g>
			<g>
				<polygon style="fill:#EF8062;" points="1678.397,894.891 1388.456,765.462 1400.013,739.633 1427.408,751.862 1689.954,869.062 
									"/>
			</g>
			<g>
				<g>
					<path style="fill:#331832;" d="M1406.142,754.691c-0.074,0-0.147-0.012-0.215-0.049c-0.264-0.123-0.381-0.429-0.264-0.687
						l4.398-9.828c0.117-0.258,0.436-0.405,0.694-0.27c0.264,0.123,0.381,0.43,0.264,0.687l-4.398,9.828
						C1406.535,754.568,1406.345,754.691,1406.142,754.691z"/>
				</g>
				<g>
					<path style="fill:#331832;" d="M1415.416,758.826c-0.074,0-0.147-0.012-0.215-0.049c-0.264-0.123-0.381-0.429-0.264-0.687
						l4.398-9.828c0.117-0.27,0.442-0.393,0.694-0.27c0.264,0.123,0.381,0.429,0.264,0.687l-4.398,9.828
						C1415.809,758.703,1415.619,758.826,1415.416,758.826z"/>
				</g>
				<g>
					<path style="fill:#331832;" d="M1424.691,762.961c-0.074,0-0.147-0.012-0.215-0.049c-0.264-0.123-0.381-0.43-0.264-0.687
						l4.398-9.828c0.11-0.27,0.454-0.417,0.694-0.27c0.264,0.123,0.381,0.43,0.264,0.687l-4.398,9.828
						C1425.084,762.838,1424.893,762.961,1424.691,762.961z"/>
				</g>
				<g>
					<path style="fill:#331832;" d="M1433.959,767.108c-0.074,0-0.147-0.012-0.215-0.049c-0.264-0.123-0.381-0.429-0.264-0.687
						l4.398-9.828c0.117-0.27,0.442-0.393,0.694-0.27c0.264,0.123,0.381,0.429,0.264,0.687l-4.398,9.828
						C1434.352,766.985,1434.161,767.108,1433.959,767.108z"/>
				</g>
				<g>
					<path style="fill:#331832;" d="M1440.66,777.132c-0.092,0-0.184-0.025-0.27-0.061c-0.332-0.147-0.485-0.54-0.332-0.871
						l6.971-15.583c0.147-0.344,0.553-0.479,0.872-0.331c0.332,0.147,0.485,0.54,0.332,0.871l-6.971,15.583
						C1441.151,776.985,1440.911,777.132,1440.66,777.132z"/>
				</g>
			</g>
			<g>
				<g>
					<path style="fill:#331832;" d="M1451.703,775.022c-0.074,0-0.147-0.012-0.215-0.049c-0.264-0.123-0.381-0.429-0.264-0.687
						l4.398-9.828c0.117-0.27,0.436-0.393,0.694-0.27c0.264,0.123,0.381,0.43,0.264,0.687l-4.398,9.828
						C1452.096,774.899,1451.906,775.022,1451.703,775.022z"/>
				</g>
				<g>
					<path style="fill:#331832;" d="M1460.977,779.169c-0.074,0-0.147-0.012-0.215-0.049c-0.264-0.123-0.381-0.429-0.264-0.687
						l4.398-9.828c0.117-0.258,0.442-0.405,0.694-0.27c0.264,0.123,0.381,0.429,0.264,0.687l-4.398,9.828
						C1461.37,779.046,1461.18,779.169,1460.977,779.169z"/>
				</g>
				<g>
					<path style="fill:#331832;" d="M1470.246,783.304c-0.074,0-0.147-0.012-0.215-0.049c-0.264-0.123-0.381-0.43-0.264-0.687
						l4.398-9.828c0.117-0.27,0.43-0.393,0.694-0.27c0.264,0.123,0.381,0.43,0.264,0.687l-4.398,9.828
						C1470.639,783.181,1470.448,783.304,1470.246,783.304z"/>
				</g>
				<g>
					<path style="fill:#331832;" d="M1479.52,787.439c-0.074,0-0.147-0.012-0.215-0.049c-0.264-0.123-0.381-0.429-0.264-0.687
						l4.398-9.828c0.117-0.27,0.442-0.417,0.694-0.27c0.264,0.123,0.381,0.429,0.264,0.687l-4.398,9.828
						C1479.913,787.316,1479.723,787.439,1479.52,787.439z"/>
				</g>
				<g>
					<path style="fill:#331832;" d="M1486.221,797.463c-0.092,0-0.184-0.025-0.27-0.061c-0.332-0.147-0.485-0.54-0.332-0.871
						l6.965-15.57c0.154-0.344,0.534-0.479,0.872-0.331c0.332,0.147,0.485,0.54,0.332,0.871l-6.965,15.57
						C1486.712,797.316,1486.473,797.463,1486.221,797.463z"/>
				</g>
			</g>
			<g>
				<g>
					<g>
						<path style="fill:#331832;" d="M1499.1,796.187c-0.074,0-0.147-0.012-0.215-0.049c-0.264-0.123-0.381-0.43-0.264-0.687
							l4.398-9.828c0.117-0.27,0.436-0.393,0.694-0.27c0.264,0.123,0.381,0.43,0.264,0.687l-4.398,9.828
							C1499.494,796.065,1499.303,796.187,1499.1,796.187z"/>
					</g>
					<g>
						<path style="fill:#331832;" d="M1508.375,800.322c-0.074,0-0.147-0.012-0.215-0.049c-0.264-0.123-0.381-0.429-0.264-0.687
							l4.398-9.828c0.117-0.27,0.442-0.417,0.694-0.27c0.264,0.123,0.381,0.429,0.264,0.687l-4.398,9.828
							C1508.768,800.199,1508.578,800.322,1508.375,800.322z"/>
					</g>
					<g>
						<path style="fill:#331832;" d="M1517.643,804.457c-0.074,0-0.147-0.012-0.215-0.049c-0.264-0.123-0.381-0.43-0.264-0.687
							l4.398-9.828c0.117-0.27,0.436-0.405,0.694-0.27c0.264,0.123,0.381,0.43,0.264,0.687l-4.398,9.828
							C1518.036,804.334,1517.846,804.457,1517.643,804.457z"/>
					</g>
					<g>
						<path style="fill:#331832;" d="M1526.917,808.604c-0.074,0-0.147-0.012-0.215-0.049c-0.264-0.123-0.381-0.429-0.264-0.687
							l4.398-9.828c0.117-0.27,0.442-0.417,0.694-0.27c0.264,0.123,0.381,0.43,0.264,0.687l-4.398,9.828
							C1527.311,808.482,1527.12,808.604,1526.917,808.604z"/>
					</g>
					<g>
						<path style="fill:#331832;" d="M1533.618,818.629c-0.092,0-0.184-0.025-0.27-0.061c-0.332-0.147-0.485-0.54-0.332-0.871
							l6.965-15.583c0.147-0.331,0.534-0.491,0.872-0.331c0.332,0.147,0.485,0.54,0.332,0.871l-6.965,15.583
							C1534.11,818.482,1533.87,818.629,1533.618,818.629z"/>
					</g>
				</g>
				<g>
					<g>
						<path style="fill:#331832;" d="M1544.662,816.518c-0.074,0-0.147-0.012-0.215-0.049c-0.264-0.123-0.381-0.43-0.264-0.687
							l4.398-9.828c0.117-0.27,0.436-0.417,0.694-0.27c0.264,0.123,0.381,0.43,0.264,0.687l-4.398,9.828
							C1545.055,816.396,1544.864,816.518,1544.662,816.518z"/>
					</g>
					<g>
						<path style="fill:#331832;" d="M1553.93,820.666c-0.074,0-0.147-0.012-0.215-0.049c-0.264-0.123-0.381-0.429-0.264-0.687
							l4.398-9.828c0.123-0.27,0.448-0.393,0.694-0.27c0.264,0.123,0.381,0.429,0.264,0.687l-4.398,9.828
							C1554.323,820.543,1554.132,820.666,1553.93,820.666z"/>
					</g>
					<g>
						<path style="fill:#331832;" d="M1563.204,824.8c-0.074,0-0.147-0.012-0.215-0.049c-0.264-0.123-0.381-0.43-0.264-0.687
							l4.398-9.828c0.117-0.27,0.43-0.417,0.694-0.27c0.264,0.123,0.381,0.429,0.264,0.687l-4.398,9.828
							C1563.597,824.678,1563.407,824.8,1563.204,824.8z"/>
					</g>
					<g>
						<path style="fill:#331832;" d="M1572.479,828.935c-0.074,0-0.147-0.012-0.215-0.049c-0.264-0.123-0.381-0.429-0.264-0.687
							l4.398-9.828c0.117-0.27,0.442-0.405,0.694-0.27c0.264,0.123,0.381,0.429,0.264,0.687l-4.398,9.828
							C1572.872,828.813,1572.681,828.935,1572.479,828.935z"/>
					</g>
					<g>
						<path style="fill:#331832;" d="M1579.173,838.96c-0.092,0-0.184-0.024-0.27-0.061c-0.332-0.147-0.485-0.54-0.332-0.871
							l6.971-15.57c0.141-0.344,0.534-0.479,0.872-0.331c0.332,0.147,0.485,0.54,0.332,0.871l-6.971,15.57
							C1579.665,838.813,1579.425,838.96,1579.173,838.96z"/>
					</g>
				</g>
			</g>
			<g>
				<g>
					<g>
						<path style="fill:#331832;" d="M1590.542,836.997c-0.074,0-0.147-0.012-0.215-0.049c-0.264-0.123-0.381-0.429-0.264-0.687
							l4.398-9.828c0.117-0.27,0.436-0.417,0.694-0.27c0.264,0.123,0.381,0.429,0.264,0.687l-4.398,9.828
							C1590.935,836.874,1590.745,836.997,1590.542,836.997z"/>
					</g>
					<g>
						<path style="fill:#331832;" d="M1599.81,841.144c-0.074,0-0.147-0.012-0.215-0.049c-0.264-0.123-0.381-0.429-0.264-0.687
							l4.398-9.828c0.123-0.27,0.448-0.405,0.694-0.27c0.264,0.123,0.381,0.429,0.264,0.687l-4.398,9.828
							C1600.203,841.021,1600.013,841.144,1599.81,841.144z"/>
					</g>
					<g>
						<path style="fill:#331832;" d="M1609.085,845.279c-0.074,0-0.147-0.012-0.215-0.049c-0.264-0.123-0.381-0.43-0.264-0.687
							l4.398-9.828c0.117-0.27,0.43-0.417,0.694-0.27c0.264,0.123,0.381,0.43,0.264,0.687l-4.398,9.828
							C1609.478,845.156,1609.287,845.279,1609.085,845.279z"/>
					</g>
					<g>
						<path style="fill:#331832;" d="M1618.353,849.414c-0.074,0-0.147-0.012-0.215-0.049c-0.264-0.123-0.381-0.429-0.264-0.687
							l4.398-9.828c0.117-0.27,0.448-0.417,0.694-0.27c0.264,0.123,0.381,0.43,0.264,0.687l-4.398,9.828
							C1618.746,849.291,1618.556,849.414,1618.353,849.414z"/>
					</g>
					<g>
						<path style="fill:#331832;" d="M1625.054,859.438c-0.092,0-0.184-0.025-0.27-0.061c-0.332-0.147-0.485-0.54-0.332-0.871
							l6.971-15.57c0.154-0.344,0.541-0.478,0.872-0.331c0.332,0.147,0.485,0.54,0.332,0.871l-6.971,15.57
							C1625.545,859.291,1625.306,859.438,1625.054,859.438z"/>
					</g>
				</g>
				<g>
					<g>
						<path style="fill:#331832;" d="M1636.097,857.34c-0.074,0-0.148-0.012-0.215-0.049c-0.264-0.123-0.381-0.429-0.264-0.687
							l4.398-9.828c0.117-0.27,0.436-0.405,0.694-0.27c0.264,0.123,0.381,0.43,0.264,0.687l-4.398,9.828
							C1636.49,857.217,1636.3,857.34,1636.097,857.34z"/>
					</g>
					<g>
						<path style="fill:#331832;" d="M1645.371,861.475c-0.074,0-0.147-0.012-0.215-0.049c-0.264-0.123-0.381-0.429-0.264-0.687
							l4.398-9.828c0.117-0.27,0.442-0.417,0.694-0.27c0.264,0.123,0.381,0.43,0.264,0.687l-4.398,9.828
							C1645.764,861.352,1645.574,861.475,1645.371,861.475z"/>
					</g>
					<g>
						<path style="fill:#331832;" d="M1654.646,865.622c-0.074,0-0.147-0.012-0.215-0.049c-0.264-0.123-0.381-0.43-0.264-0.687
							l4.398-9.828c0.111-0.27,0.455-0.405,0.694-0.27c0.264,0.123,0.381,0.43,0.264,0.687l-4.398,9.828
							C1655.039,865.499,1654.848,865.622,1654.646,865.622z"/>
					</g>
					<g>
						<path style="fill:#331832;" d="M1663.914,869.757c-0.074,0-0.147-0.012-0.215-0.049c-0.264-0.123-0.381-0.429-0.264-0.687
							l4.398-9.828c0.117-0.27,0.442-0.417,0.694-0.27c0.264,0.123,0.381,0.429,0.264,0.687l-4.398,9.828
							C1664.307,869.634,1664.117,869.757,1663.914,869.757z"/>
					</g>
					<g>
						<path style="fill:#331832;" d="M1670.615,879.781c-0.092,0-0.184-0.025-0.27-0.061c-0.332-0.147-0.485-0.54-0.332-0.871
							l6.971-15.583c0.141-0.331,0.541-0.491,0.872-0.331c0.332,0.147,0.485,0.54,0.332,0.871l-6.971,15.583
							C1671.106,879.634,1670.867,879.781,1670.615,879.781z"/>
					</g>
				</g>
			</g>
		</g>
		<g>
			<path style="fill:#FFB27D;" d="M1660.116,846.177c-6.05-5.547-20.771-13.948-26.941-19.384
				c-2.675-2.357-12.286-9.701-15.287-7.514c-2.608,1.9,1.883,11.131,4.608,15.276c-30.288-4.358-71.578,0.835-11.519,12.31
				c-0.007,0.025-0.014,0.052-0.021,0.077c-5.249-0.607-43.57-6.315-42.826,2.023c0.545,6.107,32.254,9.899,40.874,10.981
				c-0.005,0.074-0.009,0.149-0.013,0.224c-8.89-0.403-35.61-3-35.397,2.869c0.281,7.722,34.877,10.016,34.877,10.016
				s-28.629-2.579-24.729,5.516c2.198,4.563,19.207,5.573,29.811,6.057h0c0.001,0,0.002,0,0.004,0
				c2.223,0.102,4.171,0.18,5.634,0.264c1.215,0.069,2.304,0.008,3.299-0.147c17.813-0.217,29.331-3.087,29.331-3.087
				s14.082-1.171,16.548-15.301C1669.94,857.352,1662.739,848.583,1660.116,846.177z"/>
		</g>
		<g>
			<path style="fill:#68A1BF;" d="M1908.005,724.215c0,0-68.335,101.443-131.718,102.432
				c-63.383,0.989-113.452-4.619-122.184,14.843c-8.732,19.462-14.209,50.779,12.01,59.301
				c26.219,8.522,166.778,24.883,210.156-22.081c43.378-46.964,51.606-69.099,51.606-69.099L1908.005,724.215z"/>
		</g>
		<g>
			<g>
				<path style="fill:#331832;" d="M1523.171,662.38l-78.655,91.438c-1.14,1.325-3.139,1.476-4.466,0.338l0,0
					c-1.327-1.138-1.478-3.135-0.338-4.46l78.655-91.437c1.14-1.325,3.139-1.476,4.466-0.338l0,0
					C1524.159,659.058,1524.31,661.055,1523.171,662.38z"/>
			</g>
			<g>
				<polygon style="fill:#331832;" points="1435.103,761.664 1438.998,751.21 1443.557,754.571 				"/>
			</g>
		</g>
		<g>
			<g>
				<path style="fill:#FFB27D;" d="M1463.747,673.617c0,0,13.714-12.104,23.369-0.775c12.301,14.435,7.148,60.688-10.645,23.162
					c-0.519-1.095,6.41,23.036-0.712,25.652c-5.338,1.961-13.5-17.518-13.5-17.518s6.586,24.934,1.231,27.802
					c-5.507,2.95-14.125-17.444-14.125-17.444s9.534,23.381-0.863,22.356c-5.657-0.558-14.14-21.662-17.773-29.654
					c-3.433-7.552,0.64-12.774,8.636-16.407c0,0,6.366-8.005,12.044-9.128c2.177-0.43,3.299-3.148,4.633-4.059
					C1458.596,675.861,1463.747,673.617,1463.747,673.617z"/>
			</g>
		</g>
		<g>
			<path style="fill:#331832;" d="M1725.69,908.493c-0.86,0-1.327,0-1.364,0l0.012-1.031c0.289,0,28.99,0.319,61.77-4.282
				c30.206-4.245,70.16-13.632,88.979-34.294c36.139-39.681,49.019-72.723,49.148-73.055l0.958,0.368
				c-0.123,0.331-13.064,33.546-49.344,73.373c-19.028,20.896-59.233,30.356-89.611,34.625
				C1757.432,908.235,1731.783,908.493,1725.69,908.493z"/>
		</g>
		<g>
			<path style="fill:#331832;" d="M1728.951,827.156c-0.104,0-0.184,0-0.233,0v-1.031c0.006,0,0.018,0,0.043,0
				c1.83,0,60.879-0.11,74.416-11.301c13.758-11.386,32.522-37.742,32.712-38l0.835,0.589c-0.184,0.27-19.028,26.736-32.896,38.196
				C1790.162,826.911,1733.674,827.156,1728.951,827.156z"/>
		</g>
	</g>
	<g>
		<g style="opacity:0.6;">
			<path style="fill:#FFFFFF;" d="M1086.215,1465.953c0,0-5.484,24.657,48.978,33.904h359.948c0,0-26.865-13.356-27.318-33.904
				C1467.37,1445.406,1086.215,1465.953,1086.215,1465.953z"/>
		</g>
		<g>
			<g>
				<rect x="1101.1" y="1429.162" style="fill:#F0F6F6;" width="360.163" height="53.295"/>
			</g>
			<g>
				<ellipse style="fill:#92BCB5;" cx="1099.913" cy="1455.809" rx="18.82" ry="26.647"/>
			</g>
			<g>
				<ellipse style="fill:#F0F6F6;" cx="1461.263" cy="1455.809" rx="18.82" ry="26.647"/>
			</g>
		</g>
	</g>
	<g>
		<g style="opacity:0.6;">
			<path style="fill:#FFFFFF;" d="M1291.936,1493.613c0,0-4.088,24.657,36.51,33.904h268.322c0,0-20.027-13.356-20.364-33.904
				C1576.066,1473.065,1291.936,1493.613,1291.936,1493.613z"/>
		</g>
		<g>
			<g>
				<rect x="1303.031" y="1456.821" style="fill:#FFFFFF;" width="268.483" height="53.295"/>
			</g>
			<g>
				<ellipse style="fill:#92BCB5;" cx="1302.147" cy="1483.469" rx="14.029" ry="26.647"/>
			</g>
			<g>
				<ellipse style="fill:#FFFFFF;" cx="1571.514" cy="1483.469" rx="14.029" ry="26.647"/>
			</g>
		</g>
	</g>
</g>
</svg>
